<svg width="192" height="64" viewBox="0 0 192 64" fill="none" xmlns="http://www.w3.org/2000/svg">
<path d="M176.71 8.59297e-05H15.2983C14.7099 8.59297e-05 14.1286 8.59298e-05 13.5418 0.00328593C13.0506 0.00648593 12.5633 0.0157819 12.0674 0.0236059C10.99 0.0362488 9.91513 0.130768 8.85214 0.306342C7.79065 0.485738 6.76241 0.823951 5.8022 1.30954C4.84316 1.79924 3.96686 2.43555 3.20508 3.1954C2.43931 3.9531 1.80098 4.82891 1.31464 5.78914C0.826955 6.74746 0.488793 7.77439 0.311833 8.83445C0.13319 9.89318 0.0370612 10.9641 0.024308 12.0377C0.00941837 12.5282 0.00784596 13.0204 0 13.511V50.4938C0.00784596 50.9906 0.00941837 51.4719 0.024308 51.9689C0.0370651 53.0424 0.133194 54.1132 0.311833 55.1719C0.488305 56.2326 0.826487 57.2601 1.31464 58.2188C1.80076 59.1759 2.43918 60.0482 3.20508 60.8017C3.96397 61.5649 4.84084 62.2016 5.8022 62.6876C6.7624 63.1745 7.79053 63.5147 8.85214 63.6969C9.91531 63.8711 10.9901 63.9656 12.0674 63.9798C12.5633 63.9906 13.0506 63.9969 13.5418 63.9969C14.1286 64.0001 14.71 64.0001 15.2983 64.0001H176.71C177.287 64.0001 177.873 64.0001 178.45 63.9969C178.938 63.9969 179.44 63.9906 179.929 63.9798C181.004 63.9664 182.077 63.8718 183.138 63.6969C184.203 63.5134 185.235 63.1733 186.199 62.6876C187.16 62.2014 188.036 61.5646 188.794 60.8017C189.558 60.0452 190.198 59.1736 190.69 58.2188C191.175 57.2594 191.51 56.232 191.683 55.1719C191.862 54.1131 191.962 53.0425 191.981 51.9689C191.987 51.4719 191.987 50.9906 191.987 50.4938C192 49.9126 192 49.3345 192 48.7438V15.2579C192 14.672 192 14.0907 191.987 13.511C191.987 13.0204 191.987 12.5282 191.981 12.0376C191.962 10.964 191.862 9.89326 191.683 8.83439C191.509 7.77494 191.174 6.74809 190.69 5.78908C189.7 3.8644 188.129 2.29773 186.199 1.3094C185.235 0.824994 184.203 0.486871 183.138 0.306198C182.077 0.12985 181.004 0.0352984 179.929 0.0233819C179.44 0.0155739 178.938 0.00619793 178.45 0.00307793C177.873 -0.00012207 177.287 -0.00012207 176.71 -0.00012207V8.59297e-05Z" fill="#A6A6A6"/>
<path d="M13.5498 62.6C13.0609 62.6 12.5839 62.5938 12.0989 62.5829C11.0941 62.5699 10.0917 62.4826 9.09986 62.3219C8.17501 62.1631 7.27909 61.8677 6.44163 61.4453C5.61185 61.0265 4.85503 60.4773 4.20016 59.8187C3.5358 59.168 2.98269 58.4132 2.56276 57.5843C2.13819 56.7501 1.84437 55.8559 1.69152 54.9328C1.52645 53.941 1.43715 52.9381 1.42437 51.9328C1.4142 51.5954 1.40088 50.4719 1.40088 50.4719V13.511C1.40088 13.511 1.41506 12.4047 1.42445 12.0797C1.43668 11.076 1.52547 10.0747 1.69004 9.08439C1.84317 8.15882 2.13722 7.26202 2.56202 6.42503C2.98041 5.59673 3.53045 4.8414 4.1908 4.18831C4.85041 3.52902 5.60966 2.97699 6.44084 2.55236C7.27638 2.13137 8.17061 1.838 9.09358 1.68206C10.0887 1.51976 11.0946 1.43202 12.1028 1.41956L13.5506 1.40002H178.442L179.907 1.42034C180.906 1.43218 181.903 1.51914 182.889 1.68049C183.821 1.83838 184.725 2.13381 185.57 2.55705C187.235 3.4128 188.59 4.76669 189.445 6.42894C189.863 7.26015 190.152 8.14964 190.303 9.06721C190.47 10.0656 190.563 11.0748 190.582 12.0867C190.587 12.5399 190.587 13.0266 190.587 13.511C190.599 14.111 190.599 14.6821 190.599 15.2578V48.7437C190.599 49.325 190.599 49.8922 190.587 50.464C190.587 50.9843 190.587 51.461 190.581 51.9515C190.562 52.9454 190.47 53.9366 190.306 54.9171C190.157 55.8468 189.864 56.748 189.44 57.5891C189.017 58.409 188.467 59.1572 187.81 59.8063C187.155 60.4683 186.397 61.0207 185.565 61.4423C184.722 61.8679 183.82 62.1644 182.889 62.3219C181.897 62.4835 180.894 62.5707 179.89 62.5829C179.42 62.5938 178.928 62.6 178.45 62.6L176.71 62.6032L13.5498 62.6Z" fill="black"/>
<path d="M39.7417 32.4811C39.7589 31.1456 40.1147 29.8362 40.7757 28.6747C41.4368 27.5132 42.3818 26.5373 43.5228 25.8378C42.798 24.8055 41.8418 23.956 40.7301 23.3567C39.6185 22.7575 38.382 22.4249 37.119 22.3855C34.4246 22.1035 31.8126 23.9932 30.4396 23.9932C29.0401 23.9932 26.9262 22.4135 24.6498 22.4602C23.1774 22.5076 21.7425 22.9346 20.4847 23.6995C19.227 24.4644 18.1894 25.5411 17.4731 26.8248C14.37 32.1823 16.6846 40.056 19.6571 44.3865C21.1443 46.5071 22.8824 48.8758 25.1567 48.7918C27.3822 48.6998 28.2134 47.3766 30.8998 47.3766C33.5613 47.3766 34.3411 48.7918 36.6616 48.7384C39.0496 48.6997 40.5543 46.6084 41.9893 44.4678C43.0578 42.9568 43.8801 41.2868 44.4256 39.5198C43.0382 38.9346 41.8542 37.9551 41.0212 36.7034C40.1883 35.4518 39.7433 33.9833 39.7417 32.4811V32.4811Z" fill="white"/>
<path d="M35.3585 19.5374C36.6606 17.9787 37.3021 15.9752 37.1467 13.9524C35.1574 14.1607 33.3199 15.1088 32.0002 16.6078C31.355 17.34 30.8608 18.1919 30.5459 19.1148C30.231 20.0376 30.1016 21.0133 30.1651 21.986C31.1601 21.9962 32.1445 21.7811 33.0441 21.357C33.9436 20.9329 34.735 20.3107 35.3585 19.5374Z" fill="white"/>
<path d="M67.8736 43.4234H60.279L58.4551 48.7937H55.2383L62.4319 28.9249H65.774L72.9676 48.7937H69.6959L67.8736 43.4234ZM61.0655 40.9453H67.0856L64.1179 32.2296H64.0348L61.0655 40.9453Z" fill="white"/>
<path d="M88.5032 41.5516C88.5032 46.0531 86.0871 48.9453 82.441 48.9453C81.5173 48.9935 80.5988 48.7813 79.7904 48.3331C78.9821 47.8849 78.3167 47.2187 77.8704 46.4109H77.8014V53.5859H74.8196V34.3078H77.7058V36.7172H77.7607C78.2275 35.9132 78.9042 35.2505 79.7187 34.7996C80.5331 34.3486 81.455 34.1263 82.3861 34.1562C86.0729 34.1563 88.5032 37.0625 88.5032 41.5516ZM85.4384 41.5516C85.4384 38.6188 83.9185 36.6906 81.5995 36.6906C79.3213 36.6906 77.7889 38.6594 77.7889 41.5516C77.7889 44.4703 79.3213 46.425 81.5995 46.425C83.9185 46.425 85.4384 44.5109 85.4384 41.5516Z" fill="white"/>
<path d="M104.492 41.5515C104.492 46.0531 102.076 48.9453 98.4295 48.9453C97.5059 48.9935 96.5873 48.7813 95.779 48.3331C94.9706 47.8849 94.3052 47.2187 93.8589 46.4109H93.7899V53.5859H90.8081V34.3078H93.6943V36.7172H93.7491C94.216 35.9132 94.8926 35.2505 95.7071 34.7996C96.5216 34.3486 97.4435 34.1263 98.3746 34.1562C102.062 34.1562 104.492 37.0625 104.492 41.5515ZM101.427 41.5515C101.427 38.6187 99.907 36.6906 97.5881 36.6906C95.3098 36.6906 93.7774 38.6594 93.7774 41.5515C93.7774 44.4703 95.3098 46.425 97.5881 46.425C99.9071 46.425 101.427 44.5109 101.427 41.5515H101.427Z" fill="white"/>
<path d="M115.059 43.2577C115.28 45.228 117.199 46.5216 119.822 46.5216C122.336 46.5216 124.144 45.2279 124.144 43.4513C124.144 41.9091 123.053 40.9857 120.471 40.3529L117.889 39.7326C114.23 38.8513 112.532 37.1451 112.532 34.3763C112.532 30.9482 115.527 28.5935 119.782 28.5935C123.992 28.5935 126.878 30.9482 126.975 34.3763H123.965C123.785 32.3935 122.141 31.1966 119.739 31.1966C117.337 31.1966 115.693 32.4076 115.693 34.1701C115.693 35.5748 116.743 36.4013 119.311 37.0341L121.507 37.5716C125.595 38.5356 127.293 40.1732 127.293 43.0794C127.293 46.7966 124.324 49.1247 119.601 49.1247C115.183 49.1247 112.199 46.8513 112.007 43.2575L115.059 43.2577Z" fill="white"/>
<path d="M133.728 30.8795V34.3076H136.491V36.6623H133.728V44.6483C133.728 45.8889 134.282 46.467 135.496 46.467C135.824 46.4613 136.151 46.4383 136.477 46.3982V48.7388C135.931 48.8406 135.376 48.8866 134.821 48.8763C131.879 48.8763 130.733 47.7748 130.733 44.9654V36.6623H128.62V34.3076H130.732V30.8795H133.728Z" fill="white"/>
<path d="M138.091 41.5514C138.091 36.9936 140.783 34.1295 144.98 34.1295C149.192 34.1295 151.872 36.9935 151.872 41.5514C151.872 46.1217 149.206 48.9733 144.98 48.9733C140.756 48.9733 138.091 46.1217 138.091 41.5514ZM148.833 41.5514C148.833 38.4248 147.397 36.5795 144.98 36.5795C142.564 36.5795 141.129 38.4389 141.129 41.5514C141.129 44.6904 142.564 46.5217 144.98 46.5217C147.397 46.5217 148.833 44.6904 148.833 41.5514H148.833Z" fill="white"/>
<path d="M154.33 34.3077H157.174V36.7733H157.243C157.435 36.0032 157.888 35.3227 158.524 34.8461C159.16 34.3694 159.942 34.1258 160.737 34.1561C161.081 34.1549 161.423 34.1921 161.758 34.267V37.0483C161.325 36.9161 160.872 36.8554 160.419 36.8686C159.986 36.8511 159.554 36.9272 159.153 37.0919C158.752 37.2565 158.392 37.5056 158.096 37.8223C157.801 38.1389 157.578 38.5155 157.443 38.9261C157.307 39.3368 157.263 39.7719 157.312 40.2014V48.7936H154.33L154.33 34.3077Z" fill="white"/>
<path d="M175.506 44.5389C175.105 47.1686 172.537 48.9733 169.251 48.9733C165.026 48.9733 162.403 46.1498 162.403 41.6201C162.403 37.0764 165.04 34.1295 169.126 34.1295C173.145 34.1295 175.673 36.8826 175.673 41.2748V42.2936H165.413V42.4733C165.365 43.0064 165.432 43.5434 165.609 44.0488C165.786 44.5541 166.068 45.0162 166.438 45.4043C166.808 45.7923 167.256 46.0976 167.753 46.2997C168.25 46.5017 168.784 46.5961 169.32 46.5764C170.025 46.6422 170.732 46.4795 171.337 46.1124C171.941 45.7453 172.41 45.1934 172.675 44.5389L175.506 44.5389ZM165.427 40.2155H172.689C172.716 39.7361 172.643 39.2564 172.475 38.8065C172.307 38.3565 172.048 37.9461 171.713 37.6008C171.379 37.2556 170.976 36.9831 170.531 36.8003C170.086 36.6176 169.607 36.5286 169.126 36.5389C168.641 36.536 168.159 36.629 167.71 36.8126C167.261 36.9962 166.852 37.2667 166.508 37.6085C166.164 37.9503 165.892 38.3567 165.706 38.8041C165.52 39.2516 165.425 39.7312 165.427 40.2155V40.2155Z" fill="white"/>
<path d="M58.9465 18.0054H60.2266C60.447 18.0328 60.6706 18.0144 60.8835 17.9513C61.0964 17.8881 61.2938 17.7817 61.4634 17.6388C61.633 17.4958 61.771 17.3193 61.8688 17.1205C61.9666 16.9217 62.0221 16.7048 62.0317 16.4836C62.0317 15.6031 61.3673 15.0344 60.2407 15.0344C60.0149 15.0029 59.7851 15.0169 59.5649 15.0754C59.3446 15.134 59.1383 15.236 58.9582 15.3754C58.7782 15.5148 58.6279 15.6887 58.5163 15.887C58.4048 16.0852 58.3342 16.3038 58.3087 16.5297H56.9032C56.9274 16.1196 57.036 15.7189 57.2222 15.3525C57.4084 14.986 57.6683 14.6618 57.9856 14.3998C58.303 14.1379 58.671 13.9439 59.0668 13.83C59.4626 13.716 59.8776 13.6845 60.2861 13.7375C62.1711 13.7375 63.4983 14.7898 63.4983 16.3047C63.5027 16.8121 63.3325 17.3058 63.0159 17.7032C62.6994 18.1006 62.2558 18.3777 61.759 18.4883V18.6008C62.3479 18.6268 62.9024 18.8843 63.3015 19.3169C63.7005 19.7495 63.9115 20.322 63.8884 20.9094C63.8449 21.3316 63.7172 21.7409 63.5129 22.1133C63.3087 22.4857 63.0319 22.8136 62.6989 23.078C62.3659 23.3423 61.9833 23.5377 61.5736 23.6527C61.1638 23.7677 60.7352 23.8 60.3128 23.7476C59.8895 23.8052 59.4589 23.7772 59.0468 23.6652C58.6346 23.5533 58.2492 23.3597 57.9136 23.0961C57.5781 22.8325 57.2991 22.5042 57.0935 22.1308C56.8879 21.7574 56.7598 21.3465 56.7168 20.9226H58.1442C58.2304 21.8359 59.0718 22.425 60.3128 22.425C61.5538 22.425 62.3639 21.7633 62.3639 20.8305C62.3639 19.8844 61.6008 19.3016 60.2674 19.3016H58.9465V18.0054Z" fill="white"/>
<path d="M65.5103 21.479C65.5103 20.1821 66.4802 19.4344 68.1975 19.3282L70.1545 19.2157V18.5938C70.1545 17.8329 69.6515 17.4032 68.6754 17.4032C67.8794 17.4032 67.3294 17.6946 67.1696 18.204H65.7892C65.9349 16.9665 67.1038 16.1727 68.7427 16.1727C70.5541 16.1727 71.5757 17.0719 71.5757 18.5938V23.5165H70.2015V22.504H70.0887C69.8597 22.8672 69.5382 23.1632 69.1569 23.362C68.7756 23.5607 68.3483 23.655 67.9186 23.6352C67.6153 23.6666 67.3087 23.6344 67.0187 23.5405C66.7287 23.4465 66.4616 23.2931 66.2347 23.0899C66.0078 22.8867 65.8261 22.6384 65.7013 22.361C65.5765 22.0835 65.5114 21.7831 65.5103 21.479V21.479ZM70.1545 20.8633V20.261L68.3901 20.3735C67.3951 20.4399 66.9439 20.7774 66.9439 21.4126C66.9439 22.061 67.508 22.4383 68.2836 22.4383C68.5109 22.4613 68.7405 22.4384 68.9587 22.3711C69.1769 22.3037 69.3794 22.1933 69.5539 22.0463C69.7285 21.8994 69.8716 21.7189 69.9748 21.5157C70.0779 21.3125 70.1391 21.0906 70.1545 20.8633V20.8633Z" fill="white"/>
<path d="M75.3595 17.5085V23.5163H73.9336V16.3116H78.6907V17.5084L75.3595 17.5085Z" fill="white"/>
<path d="M87.3322 19.9109C87.3322 22.1999 86.1712 23.6351 84.3473 23.6351C83.8996 23.6656 83.4525 23.5679 83.0586 23.3535C82.6646 23.1391 82.3404 22.8169 82.1239 22.4249H82.0111V25.9117H80.5852V16.3117H81.9578V17.5023H82.0644C82.2847 17.0966 82.6132 16.7596 83.0136 16.5284C83.414 16.2972 83.8707 16.1808 84.3332 16.1922C86.1711 16.1921 87.3322 17.621 87.3322 19.9109ZM85.8656 19.9109C85.8656 18.389 85.1433 17.4695 83.9352 17.4695C82.7351 17.4695 81.9845 18.4085 81.9845 19.9171C81.9845 21.4187 82.735 22.3585 83.929 22.3585C85.1433 22.3585 85.8656 21.439 85.8656 19.9109Z" fill="white"/>
<path d="M89.2314 26.0968V24.8726C89.3857 24.8921 89.5411 24.901 89.6967 24.8991C90.0005 24.9216 90.3018 24.8314 90.543 24.6458C90.7842 24.4602 90.9482 24.1924 91.0034 23.8937L91.11 23.5429L88.4949 16.3116H90.0477L91.859 22.0343H91.9719L93.7769 16.3116H95.2889L92.5955 23.814C91.9781 25.5671 91.295 26.1296 89.8221 26.1296C89.703 26.1296 89.3646 26.1163 89.2314 26.0968Z" fill="white"/>
<path d="M96.3999 21.4719H97.8195C97.959 22.1071 98.556 22.4383 99.3911 22.4383C100.341 22.4383 100.924 22.0211 100.924 21.3727C100.924 20.6781 100.4 20.3469 99.3911 20.3469H98.3099V19.2422H99.3723C100.234 19.2422 100.673 18.9117 100.673 18.3094C100.673 17.7805 100.248 17.3766 99.3723 17.3766C98.5747 17.3766 97.9919 17.7141 97.8994 18.2829H96.5253C96.628 17.6293 96.9838 17.0421 97.5162 16.6475C98.0487 16.2529 98.7151 16.0824 99.3723 16.1727C101.09 16.1727 102.072 16.9469 102.072 18.1641C102.08 18.5031 101.971 18.8345 101.764 19.103C101.556 19.3714 101.262 19.5607 100.931 19.6391V19.7516C101.325 19.8023 101.687 19.9953 101.947 20.2941C102.208 20.593 102.349 20.9768 102.345 21.3727C102.345 22.7423 101.176 23.6485 99.3911 23.6485C97.8132 23.6484 96.5315 22.9273 96.3999 21.4719Z" fill="white"/>
<path d="M104.398 23.5163V16.3116H105.811V21.2671H105.924L109.253 16.3117H110.667V23.5163H109.253V18.5343H109.147L105.811 23.5164L104.398 23.5163Z" fill="white"/>
<path d="M118.453 17.5087H116.178V23.5165H114.75V17.5087H112.475V16.3119H118.453V17.5087Z" fill="white"/>
<path d="M126.134 21.5711C125.939 22.2295 125.519 22.7989 124.947 23.1799C124.374 23.5609 123.686 23.7292 123.002 23.6554C122.526 23.668 122.053 23.577 121.615 23.389C121.178 23.2009 120.787 22.9203 120.47 22.5664C120.152 22.2126 119.916 21.7941 119.776 21.34C119.637 20.8859 119.599 20.407 119.664 19.9367C119.601 19.4649 119.64 18.985 119.779 18.5295C119.917 18.074 120.153 17.6536 120.468 17.2967C120.784 16.9397 121.173 16.6547 121.609 16.4607C122.045 16.2668 122.518 16.1685 122.995 16.1726C125.006 16.1726 126.22 17.5422 126.22 19.8046V20.3008H121.118V20.3804C121.096 20.6449 121.129 20.9111 121.215 21.162C121.302 21.413 121.441 21.643 121.622 21.8374C121.803 22.0318 122.023 22.1862 122.268 22.2908C122.512 22.3953 122.776 22.4477 123.042 22.4444C123.383 22.4851 123.728 22.4237 124.034 22.2682C124.34 22.1127 124.593 21.87 124.76 21.571L126.134 21.5711ZM121.118 19.2492H124.766C124.784 19.0075 124.751 18.7647 124.669 18.5365C124.588 18.3082 124.459 18.0995 124.292 17.9237C124.124 17.748 123.922 17.6091 123.698 17.5159C123.473 17.4227 123.232 17.3774 122.989 17.3828C122.742 17.3794 122.497 17.4254 122.269 17.5181C122.04 17.6107 121.833 17.748 121.658 17.922C121.484 18.096 121.346 18.3031 121.254 18.5311C121.161 18.759 121.115 19.0032 121.118 19.2492H121.118Z" fill="white"/>
<path d="M132.179 16.3116H135.436C136.85 16.3116 137.678 17.0257 137.678 18.1436C137.681 18.4984 137.561 18.8431 137.338 19.1201C137.116 19.3972 136.805 19.5897 136.458 19.6655V19.778C136.88 19.8046 137.275 19.9918 137.563 20.3009C137.85 20.61 138.008 21.0174 138.003 21.439C138.003 22.696 137.055 23.5163 135.469 23.5163H132.179V16.3116ZM133.592 17.4031V19.2687H135.005C135.867 19.2687 136.279 18.9382 136.279 18.3288C136.279 17.7671 135.92 17.403 135.164 17.403L133.592 17.4031ZM133.592 20.314V22.4249H135.283C136.126 22.4249 136.577 22.0539 136.577 21.3726C136.577 20.6515 136.066 20.314 135.104 20.314L133.592 20.314Z" fill="white"/>
</svg>
