<svg width="182" height="21" viewBox="0 0 182 21" fill="none" xmlns="http://www.w3.org/2000/svg">
<path d="M17.2636 21H3.45458C1.54704 21 0 19.4324 0 17.4984V3.50127C0 1.56758 1.54704 7.31815e-07 3.45458 7.31815e-07H17.2636C19.1717 7.31815e-07 20.7182 1.56758 20.7182 3.50127V17.4984C20.7182 19.4324 19.1717 21 17.2636 21Z" fill="white"/>
<path d="M5.9446 2.63013L6.39859 18.3767H4.88769L4.69823 12.9841L3.69008 11.7591L3.45361 6.7381L5.9446 2.63013Z" fill="black"/>
<path d="M9.62028 18.3752H10.9156L11.1924 14.2563L10.9074 8.39418C11.4063 8.16001 11.6908 7.86466 11.8646 7.49499C12.1528 6.88226 12.1328 6.04317 12.0911 5.36055C12.0532 4.7391 11.8725 3.18112 11.8725 3.18112L11.1838 5.89576L10.7349 3.18112L10.0001 5.32108L9.5731 2.91672L8.95719 6.05722L8.2106 3.27714C8.2106 3.27714 7.77222 4.89113 7.77222 5.80579C7.77222 8.12996 9.32979 8.65112 9.32979 8.65112L9.09455 11.9981L9.62028 18.3752Z" fill="black"/>
<path d="M16.3405 18.3752H14.856L14.4657 13.1184L14.8227 9.03342C14.8227 9.03342 14.135 8.83302 13.6628 7.79727C12.9499 6.23289 14.0324 4.02626 14.2068 3.68717C14.3582 3.39361 14.4617 3.14912 15.5063 3.08653C16.5245 3.02572 16.9646 3.07071 16.9778 3.32729C17.0304 4.37086 17.6963 5.08263 17.6963 6.76437C17.6963 8.26492 16.8923 8.82982 16.3976 9.05333L16.3405 18.3752Z" fill="black"/>
<path d="M38.6032 5.86904C39.7571 5.86904 40.6614 6.23586 41.3033 6.97005C41.9462 7.70423 42.2729 8.73855 42.2729 10.0627V16.625H39.7792V10.4848C39.7792 9.66192 39.6049 9.03905 39.257 8.60502C38.8979 8.18254 38.3748 7.96027 37.6889 7.96027C36.9486 7.96027 36.3717 8.22699 35.9794 8.74975C35.5879 9.27287 35.3916 10.0293 35.3916 11.0085V16.625H32.9097V10.5855C32.9097 9.72878 32.724 9.07248 32.3542 8.62724C31.984 8.18254 31.4506 7.96027 30.732 7.96027C29.9698 7.96027 29.3929 8.22699 28.9898 8.76131C28.587 9.28408 28.3912 10.0627 28.3912 11.0748V16.625H25.8979V6.12509H28.3258V8.00437C28.587 7.32638 29.0012 6.80361 29.5451 6.43679C30.1007 6.05823 30.7647 5.86904 31.5379 5.86904C32.3542 5.86904 33.062 6.06943 33.6605 6.44746C34.2594 6.83704 34.7057 7.38203 34.9999 8.09381C35.3046 7.38203 35.7617 6.83704 36.3822 6.44746C37.003 6.06943 37.7435 5.86904 38.6032 5.86904Z" fill="white"/>
<path d="M56.7668 6.1248H59.2166L59.1947 9.21693H59.2377C59.434 8.18261 59.8815 7.38263 60.5775 6.81453C61.3522 6.18223 62.2754 5.95837 63.299 5.95837V8.61629C63.2341 8.60526 63.1357 8.60526 63.0054 8.60526C61.7095 8.60526 60.7624 8.95022 60.1639 9.63941C59.5539 10.3291 59.2598 11.3638 59.2598 12.7317V16.6252H56.7668V6.1248Z" fill="white"/>
<path d="M90.9395 16.8589C89.8616 16.8589 89.0016 16.5143 88.3808 15.8135C87.7493 15.1238 87.4335 14.1229 87.4335 12.81V8.26049H85.3979V6.12462H87.4335V3.47684H89.883V6.12462H92.8769V8.26049H89.883V12.6206C89.883 13.9444 90.4061 14.6117 91.4511 14.6117C91.8977 14.6117 92.4638 14.4768 92.758 14.3548V16.5587C92.3438 16.7582 91.7338 16.8589 90.9395 16.8589Z" fill="white"/>
<path d="M100.14 14.7341C101.011 14.7341 101.73 14.4224 102.285 13.7889C102.851 13.1548 103.124 12.3428 103.124 11.3748C103.124 10.3957 102.851 9.59523 102.285 8.96116C101.73 8.32762 101.011 8.00436 100.14 8.00436C99.5739 8.00436 99.0624 8.1491 98.6159 8.43857C98.1588 8.72787 97.7995 9.12777 97.5488 9.65089C97.288 10.1625 97.1566 10.7409 97.1566 11.3748C97.1566 12.0088 97.288 12.5873 97.5488 13.0992C97.7995 13.6107 98.1588 14.011 98.6159 14.3005C99.0624 14.5894 99.5739 14.7341 100.14 14.7341ZM94.8596 20.6401V6.12508H97.1785V7.69319C97.4618 7.137 97.8974 6.7035 98.4959 6.38059C99.0948 6.05786 99.7807 5.89126 100.543 5.89126C101.49 5.89126 102.35 6.13575 103.123 6.61388C103.896 7.09201 104.517 7.74831 104.963 8.59434C105.41 9.4288 105.639 10.3516 105.639 11.3748C105.639 12.3869 105.41 13.3214 104.963 14.1557C104.517 15.0012 103.896 15.6572 103.112 16.1353C102.34 16.614 101.479 16.8588 100.543 16.8588C99.8353 16.8588 99.1929 16.7141 98.6263 16.447C98.0498 16.1691 97.6251 15.8019 97.3529 15.357V20.6401H94.8596Z" fill="white"/>
<path d="M110.711 16.8145C109.6 16.8145 108.74 16.4805 108.13 15.8015C107.52 15.1345 107.205 14.111 107.205 12.7316V1.38616H109.698V12.5322C109.698 13.2325 109.806 13.744 110.036 14.0779C110.264 14.4227 110.678 14.5891 111.266 14.5891C111.625 14.5891 112.017 14.5182 112.344 14.4069V16.5803C111.94 16.7366 111.396 16.8145 110.711 16.8145Z" fill="white"/>
<path d="M149.992 13.2544C150.482 13.2544 150.906 13.4329 151.244 13.7882C151.582 14.1337 151.756 14.5674 151.756 15.0567C151.756 15.5455 151.582 15.9691 151.244 16.3243C150.906 16.681 150.482 16.8586 149.992 16.8586C149.502 16.8586 149.088 16.681 148.751 16.3243C148.402 15.9691 148.229 15.5455 148.229 15.0567C148.229 14.5674 148.402 14.1337 148.751 13.7882C149.088 13.4329 149.502 13.2544 149.992 13.2544Z" fill="white"/>
<path d="M166.585 5.86891C167.749 5.86891 168.643 6.23573 169.285 6.96991C169.927 7.7041 170.254 8.73842 170.254 10.0622V16.6245H167.76V10.4847C167.76 9.66179 167.586 9.03892 167.238 8.60489C166.89 8.18241 166.367 7.96014 165.67 7.96014C164.93 7.96014 164.353 8.22686 163.961 8.74962C163.568 9.27221 163.373 10.0292 163.373 11.0078V16.6245H160.891V10.5853C160.891 9.72812 160.705 9.07235 160.335 8.62711C159.976 8.18241 159.431 7.96014 158.713 7.96014C157.951 7.96014 157.373 8.22686 156.971 8.76065C156.568 9.28341 156.372 10.0622 156.372 11.0747V16.6245H153.89V6.12496H156.307V8.00424C156.568 7.32571 156.982 6.80295 157.526 6.43613C158.081 6.05774 158.746 5.86891 159.519 5.86891C160.335 5.86891 161.043 6.06877 161.642 6.44733C162.241 6.83638 162.687 7.3819 162.981 8.09332C163.286 7.3819 163.743 6.83638 164.364 6.44733C164.984 6.06877 165.724 5.86891 166.585 5.86891Z" fill="white"/>
<path d="M49.1232 14.7342C48.2524 14.7342 47.5332 14.4225 46.9785 13.789C46.4231 13.1549 46.1398 12.3428 46.1398 11.3748C46.1398 10.3958 46.4231 9.59531 46.9785 8.96124C47.5332 8.3277 48.252 8.00444 49.1232 8.00444C49.6893 8.00444 50.2008 8.14917 50.6579 8.43865C51.1154 8.72795 51.4637 9.1282 51.7254 9.65097C51.9752 10.1631 52.1066 10.7409 52.1066 11.3748C52.1066 12.0094 51.9752 12.5873 51.7254 13.0993C51.4637 13.6108 51.1154 14.0111 50.6579 14.3005C50.2008 14.5895 49.6893 14.7342 49.1232 14.7342ZM54.4035 16.6251V6.12515H52.0846V7.69327C51.8124 7.13707 51.3658 6.70357 50.7672 6.38067C50.1683 6.05794 49.4824 5.89133 48.7311 5.89133C47.7733 5.89133 46.9127 6.13635 46.1398 6.61449C45.367 7.09209 44.7571 7.74839 44.3 8.59441C43.8533 9.42888 43.636 10.3517 43.636 11.3754C43.636 12.3869 43.8533 13.3215 44.3 14.1558C44.7571 15.0013 45.367 15.6576 46.1508 16.1354C46.9236 16.614 47.7838 16.8589 48.7311 16.8589C49.4279 16.8589 50.0703 16.7141 50.6474 16.4471C51.2133 16.1692 51.638 15.802 51.9212 15.3571L52.0625 16.6251H54.4035Z" fill="white"/>
<path d="M118.344 14.7342C117.483 14.7342 116.765 14.4225 116.21 13.789C115.644 13.1546 115.36 12.3428 115.36 11.3748C115.36 10.3958 115.644 9.59531 116.21 8.96124C116.765 8.3277 117.483 8.00444 118.344 8.00444C118.921 8.00444 119.421 8.14917 119.879 8.43865C120.336 8.72759 120.696 9.12785 120.946 9.65097C121.207 10.1625 121.338 10.7409 121.338 11.3748C121.338 12.0089 121.207 12.5873 120.946 13.0993C120.696 13.6108 120.336 14.0111 119.879 14.3002C119.421 14.5895 118.921 14.7342 118.344 14.7342ZM123.635 16.6251V6.12515H121.316V7.69273C121.033 7.13672 120.597 6.70357 119.998 6.38067C119.4 6.05794 118.714 5.89133 117.952 5.89133C117.004 5.89133 116.144 6.13582 115.36 6.61395C114.588 7.09209 113.978 7.74839 113.531 8.59441C113.085 9.42888 112.856 10.3517 112.856 11.3748C112.856 12.3869 113.085 13.3215 113.531 14.1558C113.978 15.0009 114.598 15.6572 115.371 16.1354C116.155 16.614 117.016 16.8589 117.952 16.8589C118.659 16.8589 119.302 16.7141 119.868 16.4471C120.445 16.1692 120.869 15.802 121.142 15.3571L121.284 16.6251H123.635Z" fill="white"/>
<path d="M70.3752 9.87205L73.6533 6.12504H70.6864L67.2074 10.1299V1.38638H64.769V16.6255H67.2074V13.493L68.7476 11.7323L68.7467 11.7337L71.4537 16.6255H74.1102L70.3752 9.87205Z" fill="white"/>
<path d="M139.058 10.4236C139.156 9.58971 139.45 8.93306 139.929 8.45475C140.408 7.97661 141.018 7.74333 141.747 7.74333C142.553 7.74333 143.195 7.98782 143.685 8.47751C144.175 8.97751 144.425 9.62261 144.425 10.4236H139.058ZM146.908 11.1244C146.908 10.0897 146.69 9.1779 146.255 8.3774C145.819 7.56516 145.221 6.94193 144.447 6.47482C143.674 6.01891 142.792 5.78563 141.813 5.78563C140.811 5.78563 139.896 6.02958 139.102 6.50825C138.296 6.98638 137.676 7.65389 137.218 8.51094C136.76 9.36709 136.532 10.3239 136.532 11.3804C136.532 12.4815 136.76 13.4491 137.207 14.2946C137.654 15.1508 138.285 15.8071 139.09 16.2638C139.896 16.731 140.833 16.9646 141.9 16.9646C142.694 16.9646 143.435 16.8305 144.099 16.5528C144.774 16.2745 145.328 15.8446 145.754 15.3357C146.463 14.4889 146.588 13.6276 146.588 13.6276H144.244C144.088 13.9699 143.853 14.2612 143.533 14.4948C143.076 14.8177 142.531 14.9735 141.9 14.9735C141.083 14.9735 140.419 14.7174 139.918 14.2055C139.417 13.6939 139.123 12.9932 139.058 12.1146H146.832C146.886 11.7807 146.908 11.4473 146.908 11.1244Z" fill="white"/>
<path d="M130.428 7.98768C131.19 7.98768 131.81 8.22151 132.289 8.67741C132.667 9.03677 132.918 9.51828 133.052 10.1123H135.455C135.455 10.1123 135.493 9.11198 134.794 7.94323C134.375 7.24372 133.759 6.73074 133.008 6.35271C132.246 5.97433 131.397 5.7855 130.428 5.7855C129.393 5.7855 128.457 6.02945 127.63 6.50812C126.802 6.98625 126.149 7.65375 125.692 8.49925C125.224 9.34474 124.995 10.3012 124.995 11.38C124.995 12.4481 125.224 13.4049 125.692 14.261C126.149 15.1065 126.802 15.7628 127.63 16.241C128.457 16.7308 129.393 16.9641 130.428 16.9641C131.752 16.9641 132.848 16.6176 133.743 15.9081C135.179 14.768 135.298 12.9931 135.298 12.9931H132.893C132.752 13.4749 132.508 13.8691 132.17 14.1725C131.713 14.5727 131.124 14.7616 130.428 14.7616C129.557 14.7616 128.849 14.4508 128.316 13.8386C127.771 13.2151 127.499 12.3924 127.499 11.38C127.499 10.3568 127.771 9.54513 128.316 8.92226C128.849 8.29939 129.557 7.98768 130.428 7.98768Z" fill="white"/>
<path d="M174.15 10.4235C174.248 9.58958 174.542 8.93293 175.021 8.45461C175.5 7.97648 176.11 7.74319 176.839 7.74319C177.645 7.74319 178.287 7.98768 178.777 8.47702C179.267 8.97738 179.517 9.62248 179.517 10.4235H174.15ZM182 11.1243C182 10.0896 181.782 9.17777 181.347 8.37727C180.911 7.56503 180.312 6.9418 179.539 6.47469C178.767 6.01878 177.884 5.78549 176.905 5.78549C175.903 5.78549 174.988 6.02945 174.194 6.50812C173.388 6.98625 172.767 7.65375 172.31 8.51027C171.853 9.36696 171.624 10.3238 171.624 11.3803C171.624 12.4813 171.853 13.449 172.299 14.2945C172.746 15.1506 173.377 15.8069 174.183 16.2632C174.988 16.7308 175.925 16.9641 176.992 16.9641C177.787 16.9641 178.527 16.8304 179.191 16.5527C179.866 16.2744 180.42 15.8444 180.846 15.3355C181.555 14.4888 181.68 13.627 181.68 13.627H179.336C179.18 13.9698 178.945 14.261 178.625 14.4947C178.168 14.817 177.623 14.9733 176.992 14.9733C176.176 14.9733 175.512 14.7173 175.011 14.2054C174.509 13.6938 174.216 12.9931 174.15 12.1145H181.923C181.978 11.7806 182 11.4472 182 11.1243Z" fill="white"/>
<path d="M76.8907 10.424C76.9886 9.58954 77.2825 8.93288 77.7615 8.45475C78.2406 7.97661 78.85 7.74333 79.58 7.74333C80.3857 7.74333 81.0277 7.98817 81.5177 8.47751C82.0078 8.97787 82.2576 9.62261 82.2576 10.424H76.8907ZM84.7403 11.1248C84.7403 10.0901 84.5225 9.17773 84.0874 8.37722C83.6513 7.56516 83.0528 6.94175 82.2795 6.47482C81.5071 6.01874 80.625 5.78545 79.6454 5.78545C78.6432 5.78545 77.7291 6.02994 76.9343 6.50861C76.1284 6.98674 75.5079 7.65371 75.0509 8.51076C74.5933 9.36692 74.3645 10.3239 74.3645 11.3804C74.3645 12.4818 74.5933 13.4495 75.0399 14.2949C75.4865 15.1511 76.1178 15.8074 76.9232 16.2637C77.7291 16.7308 78.6651 16.9646 79.7322 16.9646C80.5271 16.9646 81.267 16.8305 81.9318 16.5531C82.6063 16.2743 83.1603 15.8449 83.5864 15.3362C84.2956 14.4888 84.42 13.6274 84.42 13.6274H82.0764C81.9203 13.9703 81.6856 14.261 81.3654 14.4948C80.9077 14.8175 80.3637 14.9735 79.7322 14.9735C78.916 14.9735 78.2515 14.7174 77.7505 14.2053C77.25 13.6938 76.9562 12.993 76.8907 12.115L84.6639 12.1146C84.7184 11.7807 84.7403 11.4471 84.7403 11.1248Z" fill="white"/>
</svg>
