<svg width="267" height="247" viewBox="0 0 267 247" fill="none" xmlns="http://www.w3.org/2000/svg">
<path d="M147.413 55.3666L130.08 22.1612L84.0085 7.62939e-05L31.1706 7.55293L0 57.8967L1.33032 124.691L78.686 246.124L215.304 203.14L258.827 152.758L267 94.016L231.269 53.9865L181.852 41.1421L147.413 55.3666Z" fill="#FF7850"/>
<path d="M81.9844 85.5807L90.437 64.8367L93.6672 66.1529L90.3948 74.1838L100.631 68.9906L104.661 70.6328L92.7622 76.5998L96.8016 91.6183L92.8009 89.9882L89.3443 76.762L85.2145 86.8969L81.9844 85.5807Z" fill="white"/>
<path d="M103.591 94.3849L109.47 88.5219L108.369 72.1436L111.688 73.4961L112.407 85.6409L120.905 77.2514L124.105 78.5555L106.614 95.6166L103.591 94.3849Z" fill="white"/>
<path d="M117.967 100.243L128.849 91.6844L127.339 79.8732L130.924 81.3342L131.87 89.5289L138.303 84.341L141.859 85.79L132.524 93.1817L134.325 106.908L130.769 105.459L129.503 95.3372L121.553 101.704L117.967 100.243Z" fill="white"/>
<path d="M137.352 108.141L145.804 87.3974L149.034 88.7136L145.69 96.9223L153.572 100.134L156.917 91.9256L160.147 93.2418L151.695 113.986L148.465 112.67L152.341 103.157L144.458 99.945L140.582 109.458L137.352 108.141Z" fill="white"/>
<path d="M154.306 115.05L164.187 107.846C163.02 106.979 162.27 105.936 161.937 104.717C161.604 103.499 161.727 102.179 162.307 100.756C163.032 98.9783 164.142 97.8068 165.64 97.242C167.137 96.6772 168.863 96.7933 170.819 97.5902L178.228 100.609L169.775 121.353L166.545 120.037L170.361 110.672L167.634 109.561L157.981 116.547L154.306 115.05ZM167.384 105.935L171.592 107.65L173.766 102.316L169.558 100.601C167.622 99.8119 166.291 100.307 165.567 102.085C164.842 103.863 165.448 105.146 167.384 105.935Z" fill="white"/>
<path d="M68.3346 122.132L76.7873 101.388L83.9291 104.298C85.7862 105.055 87.0451 106.121 87.7057 107.496C88.3664 108.871 88.3426 110.428 87.6341 112.166C87.2799 113.035 86.7505 113.741 86.0458 114.283C85.3689 114.814 84.6222 115.12 83.8056 115.202C85.6165 116.976 86.0068 119.128 84.9763 121.657C84.1794 123.613 82.9628 124.902 81.3266 125.526C79.7183 126.137 77.8769 126.02 75.8025 125.175L68.3346 122.132ZM76.6605 110.943L80.4537 112.488C82.3503 113.261 83.6528 112.778 84.3612 111.04C85.0696 109.301 84.4558 108.037 82.5196 107.249L78.7857 105.727L76.6605 110.943ZM72.7964 120.426L76.6489 121.995C79.1579 123.018 80.8512 122.452 81.7286 120.299C82.6061 118.145 81.7903 116.558 79.2813 115.535L75.4288 113.965L72.7964 120.426Z" fill="white"/>
<path d="M85.7038 129.21L94.1564 108.466L108.855 114.455L100.402 135.199L97.1723 133.883L104.393 116.161L96.1549 112.805L88.9339 130.526L85.7038 129.21Z" fill="white"/>
<path d="M104.94 137.048L113.393 116.304L126.55 121.665L125.318 124.688L115.391 120.643L113.29 125.799L121.736 129.241L120.504 132.263L112.058 128.822L109.402 135.341L119.626 139.507L118.394 142.53L104.94 137.048Z" fill="white"/>
<path d="M133.985 148.883L137.825 139.459C136.087 139.88 134.25 139.696 132.314 138.907C130.378 138.118 129.116 136.89 128.529 135.222C127.941 133.554 128.134 131.525 129.108 129.135L131.354 123.623L134.585 124.939L132.423 130.244C131.232 133.167 131.821 135.112 134.192 136.078C135.101 136.449 135.932 136.615 136.685 136.576C137.465 136.525 138.333 136.291 139.286 135.874L142.438 128.139L145.668 129.455L137.215 150.199L133.985 148.883Z" fill="white"/>
<path d="M139.56 151.154L154.976 133.248L158.325 134.613L156.807 158.182L153.488 156.83L153.941 150.968L146.681 148.009L142.908 152.519L139.56 151.154ZM148.861 145.373L154.195 147.546L154.897 138.192L148.861 145.373Z" fill="white"/>
<path d="M164.96 161.504L172.181 143.783L166.017 141.271L167.248 138.249L182.777 144.576L181.545 147.599L175.411 145.099L168.19 162.821L164.96 161.504Z" fill="white"/>
<path d="M183.065 159.483L184.164 156.786L194.506 161L193.407 163.697L183.065 159.483Z" fill="white"/>
<path d="M51.3066 157.307L52.5624 154.225C53.57 154.636 54.3635 154.752 54.943 154.573C55.5423 154.403 56.093 153.786 56.595 152.724L63.7005 138.169L75.9691 143.168L67.5165 163.912L64.2864 162.596L71.4832 144.934L65.4082 142.459L59.6814 154.223C58.7703 156.064 57.6356 157.237 56.2775 157.743C54.9194 158.249 53.2624 158.104 51.3066 157.307Z" fill="white"/>
<path d="M71.8466 165.677L80.2992 144.933L93.4568 150.294L92.2252 153.317L82.2977 149.272L80.1966 154.428L88.6424 157.869L87.4107 160.892L78.9649 157.451L76.3084 163.97L86.5322 168.136L85.3006 171.159L71.8466 165.677Z" fill="white"/>
<path d="M89.5417 172.887L97.9943 152.143L101.224 153.459L97.8797 161.668L105.762 164.88L109.107 156.671L112.337 157.987L103.885 178.731L100.655 177.415L104.531 167.903L96.648 164.691L92.7719 174.203L89.5417 172.887Z" fill="white"/>
<path d="M122.173 186.183L119.091 184.927L125.056 170.288L111.238 181.727L108.037 180.423L116.49 159.679L119.572 160.935L113.594 175.604L127.425 164.135L130.625 165.439L122.173 186.183Z" fill="white"/>
<path d="M140.549 193.671L137.467 192.415L143.432 177.776L129.614 189.215L126.414 187.911L134.866 167.167L137.948 168.423L131.971 183.092L145.801 171.623L149.002 172.927L140.549 193.671ZM140.878 162.844L143.219 163.798C143.09 164.114 143.075 164.407 143.172 164.677C143.289 164.955 143.506 165.159 143.822 165.288C144.138 165.416 144.435 165.422 144.713 165.305C144.991 165.188 145.194 164.972 145.323 164.655L147.664 165.609C147.294 166.518 146.654 167.156 145.745 167.522C144.863 167.877 143.928 167.853 142.94 167.451C141.952 167.048 141.267 166.412 140.885 165.542C140.51 164.652 140.508 163.753 140.878 162.844Z" fill="white"/>
</svg>
