<svg width="216" height="64" viewBox="0 0 216 64" fill="none" xmlns="http://www.w3.org/2000/svg">
<path d="M208 0H8C3.58172 0 0 3.58172 0 8V56C0 60.4183 3.58172 64 8 64H208C212.418 64 216 60.4183 216 56V8C216 3.58172 212.418 0 208 0Z" fill="black"/>
<path d="M208 1.28C209.782 1.28 211.492 1.988 212.752 3.24824C214.012 4.50849 214.72 6.21775 214.72 8V56C214.72 57.7823 214.012 59.4915 212.752 60.7518C211.492 62.012 209.782 62.72 208 62.72H8C6.21775 62.72 4.50849 62.012 3.24824 60.7518C1.988 59.4915 1.28 57.7823 1.28 56V8C1.28 6.21775 1.988 4.50849 3.24824 3.24824C4.50849 1.988 6.21775 1.28 8 1.28H208ZM208 0H8C5.87827 0 3.84344 0.842855 2.34315 2.34315C0.842855 3.84344 0 5.87827 0 8V56C0 58.1217 0.842855 60.1566 2.34315 61.6569C3.84344 63.1571 5.87827 64 8 64H208C210.122 64 212.157 63.1571 213.657 61.6569C215.157 60.1566 216 58.1217 216 56V8C216 5.87827 215.157 3.84344 213.657 2.34315C212.157 0.842855 210.122 0 208 0Z" fill="#A6A6A6"/>
<path d="M109.024 34.8001C107.676 34.8033 106.359 35.2061 105.24 35.9577C104.121 36.7093 103.25 37.7758 102.737 39.0225C102.224 40.2692 102.092 41.6399 102.358 42.9615C102.624 44.2831 103.276 45.496 104.232 46.447C105.187 47.398 106.403 48.0443 107.726 48.3042C109.049 48.5641 110.419 48.4259 111.663 47.9071C112.907 47.3883 113.97 46.5122 114.716 45.3895C115.463 44.2669 115.859 42.9482 115.856 41.6001C115.869 40.7008 115.701 39.8081 115.362 38.975C115.023 38.142 114.519 37.3858 113.882 36.7513C113.245 36.1168 112.486 35.6171 111.651 35.2819C110.817 34.9467 109.923 34.7828 109.024 34.8001V34.8001ZM109.024 45.7281C108.198 45.7859 107.373 45.5938 106.658 45.1767C105.942 44.7597 105.368 44.137 105.011 43.3896C104.654 42.6422 104.53 41.8047 104.655 40.9859C104.781 40.1672 105.149 39.405 105.714 38.7986C106.278 38.1921 107.011 37.7694 107.819 37.5853C108.626 37.4013 109.471 37.4645 110.242 37.7666C111.013 38.0688 111.676 38.596 112.143 39.2796C112.611 39.9633 112.862 40.7718 112.864 41.6001C112.89 42.1249 112.81 42.6496 112.63 43.1432C112.45 43.6367 112.173 44.0892 111.815 44.474C111.457 44.8587 111.025 45.1679 110.546 45.3833C110.067 45.5987 109.549 45.7159 109.024 45.7281ZM94.112 34.8001C92.7639 34.8033 91.4471 35.2061 90.328 35.9577C89.2088 36.7093 88.3377 37.7758 87.8248 39.0225C87.3118 40.2692 87.18 41.6399 87.4461 42.9615C87.7122 44.2831 88.3642 45.496 89.3197 46.447C90.2752 47.398 91.4912 48.0443 92.814 48.3042C94.1368 48.5641 95.5069 48.4259 96.7512 47.9071C97.9954 47.3883 99.0579 46.5122 99.8042 45.3895C100.551 44.2669 100.947 42.9482 100.944 41.6001C100.957 40.7008 100.789 39.8081 100.45 38.975C100.111 38.142 99.6075 37.3858 98.97 36.7513C98.3326 36.1168 97.5739 35.6171 96.7394 35.2819C95.9048 34.9467 95.0112 34.7828 94.112 34.8001V34.8001ZM94.112 45.7281C93.2857 45.7859 92.4612 45.5938 91.7456 45.1767C91.0299 44.7597 90.4563 44.137 90.0992 43.3896C89.7422 42.6422 89.6182 41.8047 89.7435 40.9859C89.8687 40.1672 90.2374 39.405 90.8016 38.7986C91.3657 38.1921 92.0993 37.7694 92.9068 37.5853C93.7144 37.4013 94.5587 37.4645 95.3299 37.7666C96.1011 38.0688 96.7636 38.596 97.2312 39.2796C97.6988 39.9633 97.95 40.7718 97.952 41.6001C97.9778 42.1249 97.8982 42.6496 97.718 43.1432C97.5378 43.6367 97.2605 44.0892 96.9026 44.474C96.5447 44.8587 96.1134 45.1679 95.6342 45.3833C95.1549 45.5987 94.6373 45.7159 94.112 45.7281ZM76.384 36.8961V39.7761H83.296C83.1876 41.1326 82.6238 42.4126 81.696 43.4081C81.0027 44.1145 80.1687 44.6675 79.2482 45.0313C78.3276 45.3951 77.341 45.5616 76.352 45.5201C74.3152 45.5201 72.3617 44.711 70.9214 43.2707C69.4811 41.8304 68.672 39.877 68.672 37.8401C68.672 35.8032 69.4811 33.8498 70.9214 32.4095C72.3617 30.9692 74.3152 30.1601 76.352 30.1601C78.3047 30.1311 80.1902 30.8726 81.6 32.2241L83.632 30.1921C82.6784 29.2489 81.5461 28.5055 80.3015 28.0055C79.057 27.5055 77.7251 27.2588 76.384 27.2801C74.9616 27.2247 73.5427 27.4571 72.2122 27.9632C70.8817 28.4694 69.6672 29.2389 68.6412 30.2257C67.6153 31.2125 66.7991 32.3962 66.2416 33.706C65.6841 35.0158 65.3967 36.4246 65.3967 37.8481C65.3967 39.2716 65.6841 40.6804 66.2416 41.9902C66.7991 43.2999 67.6153 44.4837 68.6412 45.4705C69.6672 46.4573 70.8817 47.2268 72.2122 47.7329C73.5427 48.2391 74.9616 48.4714 76.384 48.4161C77.7527 48.4708 79.1174 48.2353 80.3887 47.7251C81.6599 47.215 82.8088 46.4417 83.76 45.4561C85.4402 43.6103 86.3355 41.1828 86.256 38.6881C86.2617 38.0877 86.2135 37.4879 86.112 36.8961H76.384ZM148.88 39.1361C148.463 37.9085 147.682 36.8365 146.642 36.0623C145.602 35.288 144.352 34.8478 143.056 34.8001C142.181 34.7984 141.315 34.9762 140.511 35.3225C139.707 35.6689 138.983 36.1764 138.383 36.8137C137.783 37.4511 137.32 38.2047 137.023 39.0279C136.726 39.8512 136.601 40.7266 136.656 41.6001C136.642 43.0607 137.102 44.4865 137.965 45.6645C138.828 46.8426 140.05 47.7097 141.447 48.1363C142.844 48.563 144.341 48.5262 145.716 48.0316C147.09 47.537 148.267 46.6111 149.072 45.3921L146.752 43.7921C146.406 44.3685 145.916 44.8446 145.329 45.1729C144.742 45.5013 144.08 45.6706 143.408 45.6641C142.715 45.6927 142.029 45.5109 141.44 45.1425C140.852 44.7742 140.389 44.2365 140.112 43.6001L149.216 39.8401L148.88 39.1361ZM139.6 41.4081C139.568 40.9111 139.635 40.4126 139.797 39.9419C139.96 39.4711 140.215 39.0375 140.547 38.6665C140.879 38.2955 141.282 37.9945 141.732 37.7812C142.182 37.5679 142.67 37.4464 143.168 37.4241C143.684 37.3926 144.197 37.514 144.644 37.773C145.091 38.032 145.451 38.4171 145.68 38.8801L139.6 41.4081ZM132.208 48.0001H135.2V28.0001H132.208V48.0001ZM127.312 36.3201H127.2C126.753 35.8111 126.201 35.4046 125.583 35.1284C124.964 34.8523 124.293 34.713 123.616 34.7201C121.868 34.8049 120.219 35.5592 119.011 36.8266C117.804 38.0941 117.13 39.7775 117.13 41.5281C117.13 43.2787 117.804 44.9621 119.011 46.2296C120.219 47.497 121.868 48.2513 123.616 48.3361C124.294 48.3497 124.967 48.2133 125.587 47.9368C126.206 47.6602 126.757 47.2502 127.2 46.7361H127.312V47.7121C127.312 50.3201 125.92 51.7121 123.68 51.7121C122.932 51.6957 122.205 51.4572 121.593 51.027C120.98 50.5969 120.509 49.9944 120.24 49.2961L117.648 50.3681C118.127 51.5717 118.96 52.6015 120.037 53.3214C121.114 54.0414 122.385 54.4175 123.68 54.4001C127.184 54.4001 130.08 52.3361 130.08 47.3121V35.2001H127.312V36.3201ZM123.872 45.7281C122.824 45.6627 121.84 45.2002 121.12 44.4348C120.401 43.6693 120.001 42.6584 120.001 41.6081C120.001 40.5577 120.401 39.5469 121.12 38.7814C121.84 38.016 122.824 37.5535 123.872 37.4881C124.384 37.5102 124.887 37.6352 125.35 37.8555C125.813 38.0759 126.227 38.3871 126.568 38.7708C126.908 39.1544 127.168 39.6026 127.331 40.0887C127.495 40.5747 127.559 41.0887 127.52 41.6001C127.564 42.1132 127.503 42.6298 127.341 43.1187C127.179 43.6076 126.92 44.0587 126.579 44.4446C126.238 44.8304 125.822 45.1431 125.357 45.3637C124.892 45.5844 124.387 45.7083 123.872 45.7281V45.7281ZM162.896 28.0001H155.728V48.0001H158.72V40.4161H162.896C163.749 40.4774 164.605 40.3623 165.411 40.0781C166.218 39.7938 166.957 39.3465 167.582 38.7641C168.208 38.1816 168.707 37.4765 169.049 36.6926C169.39 35.9088 169.566 35.063 169.566 34.2081C169.566 33.3532 169.39 32.5074 169.049 31.7236C168.707 30.9397 168.208 30.2346 167.582 29.6521C166.957 29.0696 166.218 28.6224 165.411 28.3381C164.605 28.0539 163.749 27.9388 162.896 28.0001V28.0001ZM162.896 37.6001H158.72V30.7841H162.96C163.41 30.7841 163.855 30.8727 164.27 31.0447C164.686 31.2168 165.063 31.469 165.381 31.787C165.699 32.1049 165.951 32.4824 166.123 32.8978C166.295 33.3132 166.384 33.7584 166.384 34.2081C166.384 34.6577 166.295 35.103 166.123 35.5184C165.951 35.9338 165.699 36.3113 165.381 36.6292C165.063 36.9472 164.686 37.1994 164.27 37.3715C163.855 37.5435 163.41 37.6321 162.96 37.6321L162.896 37.6001ZM181.36 34.7361C180.27 34.6689 179.185 34.9226 178.238 35.4657C177.291 36.0089 176.524 36.8177 176.032 37.7921L178.672 38.8961C178.939 38.4151 179.339 38.0217 179.825 37.7633C180.31 37.505 180.86 37.3927 181.408 37.4401C181.788 37.3957 182.173 37.4275 182.54 37.5334C182.908 37.6394 183.25 37.8174 183.548 38.0572C183.846 38.297 184.093 38.5937 184.275 38.93C184.457 39.2664 184.57 39.6356 184.608 40.0161V40.2081C183.646 39.7024 182.575 39.4388 181.488 39.4401C178.64 39.4401 175.728 41.0401 175.728 43.9521C175.756 44.571 175.908 45.178 176.176 45.737C176.443 46.2959 176.82 46.7954 177.284 47.2059C177.748 47.6163 178.29 47.9293 178.878 48.1262C179.465 48.3231 180.086 48.3999 180.704 48.3521C181.455 48.3936 182.203 48.2347 182.872 47.8917C183.541 47.5487 184.107 47.0339 184.512 46.4001H184.608V48.0001H187.488V40.3041C187.488 36.8001 184.832 34.7681 181.424 34.7681L181.36 34.7361ZM180.992 45.6961C180.016 45.6961 178.656 45.2001 178.656 44.0001C178.656 42.4001 180.352 41.8561 181.856 41.8561C182.806 41.8326 183.746 42.0647 184.576 42.5281C184.476 43.397 184.064 44.2 183.416 44.7884C182.769 45.3768 181.931 45.7107 181.056 45.7281L180.992 45.6961ZM197.984 35.2001L194.56 43.8721H194.464L190.912 35.2001H187.712L193.04 47.3281L190 54.0641H193.12L201.312 35.2001H197.984ZM171.104 48.0001H174.08V28.0001H171.104V48.0001Z" fill="white"/>
<path d="M16.704 12.064C16.1767 12.6874 15.9077 13.4888 15.9519 14.304V49.696C15.8975 50.5126 16.1678 51.3177 16.704 51.936L16.816 52.064L36.64 32.24V31.76L16.816 11.952L16.704 12.064Z" fill="url(#paint0_linear_98_1256)"/>
<path d="M43.2001 38.8481L36.6401 32.2401V31.7601L43.2001 25.1521L43.3441 25.2481L51.2001 29.6961C53.4401 30.9601 53.4401 33.0401 51.2001 34.3201L43.3761 38.7681L43.2001 38.8481Z" fill="url(#paint1_linear_98_1256)"/>
<path d="M43.3921 38.752L36.6401 32L16.7041 51.936C17.1562 52.3384 17.7349 52.57 18.3399 52.5904C18.9448 52.6109 19.5378 52.419 20.0161 52.048L43.3921 38.752" fill="url(#paint2_linear_98_1256)"/>
<path d="M43.3921 25.248L20.0161 11.968C19.5409 11.5918 18.9484 11.3953 18.3426 11.4128C17.7369 11.4304 17.1567 11.6609 16.7041 12.064L36.6401 32L43.3921 25.248Z" fill="url(#paint3_linear_98_1256)"/>
<path opacity="0.2" d="M43.2001 38.608L20.0161 51.808C19.5552 52.1559 18.9935 52.344 18.4161 52.344C17.8387 52.344 17.277 52.1559 16.8161 51.808V51.808L16.7041 51.92L16.8161 52.048C17.277 52.3959 17.8387 52.584 18.4161 52.584C18.9935 52.584 19.5552 52.3959 20.0161 52.048L43.3921 38.752L43.2001 38.608Z" fill="black"/>
<path opacity="0.12" d="M16.7039 51.7119C16.19 51.0773 15.9381 50.2702 15.9999 49.4559V49.6959C15.9455 50.5125 16.2157 51.3176 16.7519 51.9359L16.8639 51.8239L16.7039 51.7119Z" fill="black"/>
<path opacity="0.12" d="M51.2 34.08L43.2 38.608L43.344 38.752L51.2 34.304C51.6637 34.1079 52.066 33.7904 52.3644 33.385C52.6629 32.9795 52.8465 32.501 52.896 32C52.7959 32.4553 52.5903 32.8807 52.2957 33.242C52.0011 33.6033 51.6258 33.8904 51.2 34.08Z" fill="black"/>
<path opacity="0.25" d="M20.0161 12.1919L51.2002 29.9199C51.626 30.1095 52.0013 30.3965 52.2959 30.7578C52.5905 31.1191 52.7961 31.5446 52.8962 31.9999C52.8467 31.4988 52.6631 31.0204 52.3646 30.6149C52.0662 30.2094 51.6639 29.8919 51.2002 29.6959L20.0161 11.9679C17.7921 10.6879 15.9521 11.7439 15.9521 14.3039V14.5439C16.0001 11.9839 17.7921 10.9279 20.0161 12.1919Z" fill="white"/>
<path d="M67.376 22.8321H66.208V19.6321H67.2C67.6463 19.1475 67.982 18.5717 68.1836 17.9446C68.3853 17.3174 68.4482 16.6539 68.368 16.0001V11.2001H74.768V19.6161H75.84V22.8161H74.656V20.8001H67.376V22.8321ZM69.6 16.0001C69.6714 17.2853 69.3536 18.5622 68.688 19.6641H73.488V12.3841H69.6V16.0001Z" fill="white" stroke="white" stroke-width="0.307244" stroke-miterlimit="10"/>
<path d="M85.4562 19.5521C84.9954 20.0141 84.448 20.3807 83.8454 20.6308C83.2427 20.8809 82.5967 21.0096 81.9442 21.0096C81.2917 21.0096 80.6456 20.8809 80.043 20.6308C79.4403 20.3807 78.8929 20.0141 78.4322 19.5521C77.5168 18.5961 77.0059 17.3237 77.0059 16.0001C77.0059 14.6766 77.5168 13.4041 78.4322 12.4481C78.8929 11.9861 79.4403 11.6196 80.043 11.3694C80.6456 11.1193 81.2917 10.9906 81.9442 10.9906C82.5967 10.9906 83.2427 11.1193 83.8454 11.3694C84.448 11.6196 84.9954 11.9861 85.4562 12.4481C85.9184 12.9153 86.2825 13.4702 86.527 14.0802C86.7716 14.6902 86.8917 15.343 86.8802 16.0001C86.8991 16.6582 86.7824 17.3131 86.5375 17.9242C86.2925 18.5352 85.9244 19.0893 85.4562 19.5521V19.5521ZM79.3282 18.7521C79.6653 19.1023 80.0707 19.3795 80.5193 19.5666C80.9679 19.7538 81.4501 19.8468 81.9362 19.8401C82.4226 19.8497 82.9057 19.758 83.3547 19.5707C83.8037 19.3834 84.2088 19.1046 84.5442 18.7521C85.2346 18.0019 85.6178 17.0196 85.6178 16.0001C85.6178 14.9806 85.2346 13.9983 84.5442 13.2481C84.2088 12.8956 83.8037 12.6169 83.3547 12.4295C82.9057 12.2422 82.4226 12.1505 81.9362 12.1601C81.4501 12.1534 80.9679 12.2464 80.5193 12.4336C80.0707 12.6207 79.6653 12.898 79.3282 13.2481C78.6479 14.0033 78.2715 14.9837 78.2715 16.0001C78.2715 17.0165 78.6479 17.9969 79.3282 18.7521Z" fill="white" stroke="white" stroke-width="0.307244" stroke-miterlimit="10"/>
<path d="M93.0879 21.008C92.4405 21.0181 91.7978 20.8972 91.1983 20.6525C90.5989 20.4078 90.0552 20.0443 89.5999 19.584C88.6767 18.6192 88.1614 17.3353 88.1614 16C88.1614 14.6646 88.6767 13.3808 89.5999 12.416C90.0626 11.9477 90.6168 11.5797 91.2278 11.3347C91.8389 11.0897 92.4938 10.9731 93.1519 10.992C93.8217 10.973 94.487 11.1073 95.097 11.3846C95.7071 11.6619 96.2457 12.0748 96.6719 12.592L95.8239 13.424C95.5095 13.0198 95.1028 12.697 94.6379 12.4827C94.1729 12.2683 93.6633 12.1686 93.1519 12.192C92.6594 12.1794 92.1695 12.2681 91.7127 12.4525C91.2558 12.6369 90.8417 12.9131 90.4959 13.264C89.8067 14.0211 89.4247 15.0081 89.4247 16.032C89.4247 17.0558 89.8067 18.0428 90.4959 18.8C90.8417 19.1509 91.2558 19.4271 91.7127 19.6115C92.1695 19.7959 92.6594 19.8845 93.1519 19.872C93.7017 19.8563 94.2414 19.7208 94.7333 19.4749C95.2252 19.2289 95.6575 18.8784 95.9999 18.448L96.8639 19.296C96.4256 19.8212 95.8801 20.2467 95.2639 20.544C94.5832 20.862 93.839 21.0206 93.0879 21.008Z" fill="white" stroke="white" stroke-width="0.307244" stroke-miterlimit="10"/>
<path d="M101.888 20.8001H100.656V12.3841H97.9678V11.2001H104.56V12.3841H101.888V20.8001Z" fill="white" stroke="white" stroke-width="0.307244" stroke-miterlimit="10"/>
<path d="M113.04 11.2001L109.408 19.2961C109.32 19.6207 109.162 19.9222 108.946 20.1799C108.73 20.4375 108.46 20.645 108.156 20.7881C107.851 20.9312 107.52 21.0063 107.183 21.0084C106.847 21.0105 106.514 20.9394 106.208 20.8001L106.528 19.6641C106.724 19.7741 106.943 19.8345 107.168 19.8401C107.405 19.852 107.639 19.7905 107.84 19.6641C108.034 19.5024 108.183 19.2928 108.272 19.0561L108.624 18.2881L105.424 11.2001H106.88L109.248 16.7041L111.584 11.2001H113.04Z" fill="white" stroke="white" stroke-width="0.307244" stroke-miterlimit="10"/>
<path d="M114.432 20.8001V11.2001H121.376V20.8001H120.144V12.3841H115.664V20.8001H114.432Z" fill="white" stroke="white" stroke-width="0.307244" stroke-miterlimit="10"/>
<path d="M123.568 20.8001V11.2001H124.8V15.3121H129.6V11.2001H130.848V20.8001H129.6V16.4641H124.8V20.8001H123.568Z" fill="white" stroke="white" stroke-width="0.307244" stroke-miterlimit="10"/>
<path d="M140.896 19.5521C140.434 20.0146 139.885 20.3815 139.281 20.6318C138.677 20.8821 138.03 21.011 137.376 21.011C136.722 21.011 136.075 20.8821 135.471 20.6318C134.867 20.3815 134.318 20.0146 133.856 19.5521C132.941 18.5961 132.43 17.3237 132.43 16.0001C132.43 14.6766 132.941 13.4041 133.856 12.4481C134.317 11.9861 134.864 11.6196 135.467 11.3694C136.069 11.1193 136.716 10.9906 137.368 10.9906C138.02 10.9906 138.667 11.1193 139.269 11.3694C139.872 11.6196 140.419 11.9861 140.88 12.4481C141.788 13.4078 142.294 14.6789 142.294 16.0001C142.294 17.3213 141.788 18.5924 140.88 19.5521H140.896ZM134.768 18.7521C135.103 19.1046 135.508 19.3834 135.957 19.5707C136.406 19.758 136.89 19.8497 137.376 19.8401C137.862 19.8468 138.344 19.7538 138.793 19.5666C139.241 19.3795 139.647 19.1023 139.984 18.7521C140.664 17.9969 141.041 17.0165 141.041 16.0001C141.041 14.9837 140.664 14.0033 139.984 13.2481C139.647 12.898 139.241 12.6207 138.793 12.4336C138.344 12.2464 137.862 12.1534 137.376 12.1601C136.89 12.1505 136.406 12.2422 135.957 12.4295C135.508 12.6169 135.103 12.8956 134.768 13.2481C134.078 13.9983 133.694 14.9806 133.694 16.0001C133.694 17.0196 134.078 18.0019 134.768 18.7521V18.7521Z" fill="white" stroke="white" stroke-width="0.307244" stroke-miterlimit="10"/>
<path d="M147.344 20.8V11.2H150.816C151.536 11.1927 152.232 11.4553 152.768 11.936C153.035 12.168 153.249 12.4559 153.392 12.7794C153.536 13.1029 153.607 13.454 153.6 13.808C153.604 14.239 153.482 14.6617 153.248 15.024C153.012 15.3675 152.685 15.6389 152.304 15.808V15.808C152.766 15.9659 153.172 16.255 153.472 16.64C153.766 17.0321 153.924 17.5098 153.92 18C153.928 18.3688 153.855 18.7349 153.706 19.0723C153.556 19.4097 153.335 19.71 153.056 19.952C152.501 20.4687 151.767 20.7498 151.008 20.736L147.344 20.8ZM148.576 15.312H150.816C151.026 15.3241 151.235 15.2887 151.429 15.2083C151.623 15.128 151.797 15.0048 151.936 14.848C152.207 14.5821 152.363 14.2198 152.368 13.84C152.383 13.459 152.252 13.0867 152 12.8C151.866 12.6508 151.7 12.5332 151.514 12.4557C151.329 12.3783 151.129 12.3428 150.928 12.352H148.624L148.576 15.312ZM148.576 19.616H151.072C151.289 19.6232 151.504 19.5826 151.704 19.4968C151.903 19.4111 152.08 19.2824 152.224 19.12C152.5 18.8249 152.655 18.4362 152.656 18.032C152.646 17.6311 152.487 17.2485 152.208 16.96C152.054 16.798 151.867 16.6702 151.661 16.5848C151.454 16.4993 151.232 16.4582 151.008 16.464H148.576V19.616Z" fill="white" stroke="white" stroke-width="0.307244" stroke-miterlimit="10"/>
<defs>
<linearGradient id="paint0_linear_98_1256" x1="34.88" y1="13.936" x2="8.03195" y2="40.784" gradientUnits="userSpaceOnUse">
<stop stop-color="#00A0FF"/>
<stop offset="0.01" stop-color="#00A1FF"/>
<stop offset="0.26" stop-color="#00BEFF"/>
<stop offset="0.51" stop-color="#00D2FF"/>
<stop offset="0.76" stop-color="#00DFFF"/>
<stop offset="1" stop-color="#00E3FF"/>
</linearGradient>
<linearGradient id="paint1_linear_98_1256" x1="54.1281" y1="32.0001" x2="15.4241" y2="32.0001" gradientUnits="userSpaceOnUse">
<stop stop-color="#FFE000"/>
<stop offset="0.41" stop-color="#FFBD00"/>
<stop offset="0.78" stop-color="#FFA500"/>
<stop offset="1" stop-color="#FF9C00"/>
</linearGradient>
<linearGradient id="paint2_linear_98_1256" x1="39.7281" y1="35.68" x2="3.31211" y2="72.08" gradientUnits="userSpaceOnUse">
<stop stop-color="#FF3A44"/>
<stop offset="1" stop-color="#C31162"/>
</linearGradient>
<linearGradient id="paint3_linear_98_1256" x1="11.6801" y1="0.287976" x2="27.9361" y2="16.544" gradientUnits="userSpaceOnUse">
<stop stop-color="#32A071"/>
<stop offset="0.07" stop-color="#2DA771"/>
<stop offset="0.48" stop-color="#15CF74"/>
<stop offset="0.8" stop-color="#06E775"/>
<stop offset="1" stop-color="#00F076"/>
</linearGradient>
</defs>
</svg>
