<svg width="242" height="28" viewBox="0 0 242 28" fill="none" xmlns="http://www.w3.org/2000/svg">
<path d="M22.9444 28H4.59134C2.05611 28 0 25.9099 0 23.3312V4.66836C0 2.09011 2.05611 0 4.59134 0H22.9444C25.4803 0 27.5357 2.09011 27.5357 4.66836V23.3312C27.5357 25.9099 25.4803 28 22.9444 28Z" fill="black"/>
<path d="M7.90076 3.50676L8.50414 24.5022H6.49606L6.24426 17.312L4.90437 15.6787L4.59009 8.98405L7.90076 3.50676Z" fill="#7DBC3C"/>
<path d="M12.786 24.5005H14.5076L14.8755 19.0085L14.4966 11.1924C15.1597 10.8802 15.5378 10.4864 15.7689 9.99349C16.152 9.17651 16.1254 8.05772 16.0699 7.14757C16.0195 6.31897 15.7794 4.24166 15.7794 4.24166L14.8641 7.86118L14.2674 4.24166L13.2908 7.09493L12.7233 3.88912L11.9047 8.07645L10.9125 4.36969C10.9125 4.36969 10.3298 6.52167 10.3298 7.74122C10.3298 10.8401 12.3999 11.535 12.3999 11.535L12.0873 15.9976L12.786 24.5005Z" fill="#FF7850"/>
<path d="M21.7174 24.5005H19.7445L19.2258 17.4914L19.7002 12.0447C19.7002 12.0447 18.7863 11.7775 18.1587 10.3965C17.2112 8.31069 18.6499 5.36851 18.8817 4.9164C19.0829 4.52497 19.2204 4.19899 20.6088 4.11554C21.962 4.03445 22.547 4.09444 22.5644 4.43654C22.6344 5.82797 23.5194 6.77701 23.5194 9.01932C23.5194 11.0201 22.4509 11.7733 21.7934 12.0713L21.7174 24.5005Z" fill="#F39941"/>
<path d="M51.3057 7.82523C52.8394 7.82523 54.0412 8.31432 54.8943 9.29323C55.7488 10.2721 56.1829 11.6512 56.1829 13.4168V22.1665H52.8687V13.9796C52.8687 12.8824 52.637 12.0519 52.1747 11.4732C51.6974 10.9099 51.0022 10.6135 50.0906 10.6135C49.1067 10.6135 48.3399 10.9692 47.8186 11.6662C47.2982 12.3637 47.0373 13.3722 47.0373 14.6778V22.1665H43.7388V14.1138C43.7388 12.9715 43.4919 12.0965 43.0004 11.5028C42.5084 10.9099 41.7994 10.6135 40.8445 10.6135C39.8315 10.6135 39.0646 10.9692 38.5289 11.6816C37.9936 12.3786 37.7334 13.4168 37.7334 14.7663V22.1665H34.4197V8.16662H37.6464V10.6723C37.9936 9.76834 38.544 9.07132 39.267 8.58223C40.0054 8.07748 40.8878 7.82523 41.9156 7.82523C43.0004 7.82523 43.9411 8.09242 44.7366 8.59645C45.5326 9.1159 46.1257 9.84255 46.5167 10.7916C46.9217 9.84255 47.5292 9.1159 48.3539 8.59645C49.179 8.09242 50.1631 7.82523 51.3057 7.82523Z" fill="black"/>
<path d="M75.4465 8.1664H78.7024L78.6733 12.2892H78.7304C78.9913 10.9101 79.586 9.84351 80.5112 9.08604C81.5407 8.24298 82.7678 7.94449 84.1282 7.94449V11.4884C84.0419 11.4737 83.9111 11.4737 83.7379 11.4737C82.0157 11.4737 80.7569 11.9336 79.9614 12.8525C79.1508 13.7722 78.7598 15.1518 78.7598 16.9756V22.167H75.4465V8.1664Z" fill="black"/>
<path d="M120.864 22.4785C119.431 22.4785 118.288 22.0191 117.463 21.0847C116.624 20.1651 116.204 18.8305 116.204 17.0799V11.014H113.499V8.16616H116.204V4.63579H119.46V8.16616H123.439V11.014H119.46V16.8274C119.46 18.5925 120.155 19.4823 121.544 19.4823C122.137 19.4823 122.89 19.3023 123.281 19.1397V22.0783C122.73 22.3443 121.92 22.4785 120.864 22.4785Z" fill="black"/>
<path d="M133.092 19.6456C134.249 19.6456 135.205 19.23 135.942 18.3853C136.695 17.5399 137.057 16.4571 137.057 15.1664C137.057 13.8611 136.695 12.7937 135.942 11.9483C135.205 11.1036 134.249 10.6726 133.092 10.6726C132.34 10.6726 131.66 10.8655 131.066 11.2515C130.459 11.6372 129.981 12.1704 129.648 12.8679C129.301 13.55 129.127 14.3212 129.127 15.1664C129.127 16.0119 129.301 16.7831 129.648 17.4656C129.981 18.1477 130.459 18.6814 131.066 19.0674C131.66 19.4526 132.34 19.6456 133.092 19.6456ZM126.074 27.5203V8.16685H129.156V10.2577C129.532 9.51608 130.111 8.93808 130.907 8.50754C131.703 8.07723 132.614 7.85509 133.628 7.85509C134.886 7.85509 136.029 8.18108 137.057 8.81859C138.084 9.4561 138.909 10.3312 139.502 11.4592C140.096 12.5718 140.4 13.8023 140.4 15.1664C140.4 16.5159 140.096 17.762 139.502 18.8744C138.909 20.0017 138.084 20.8763 137.042 21.5138C136.015 22.152 134.872 22.4785 133.628 22.4785C132.687 22.4785 131.833 22.2855 131.08 21.9294C130.314 21.5589 129.75 21.0693 129.388 20.4761V27.5203H126.074Z" fill="black"/>
<path d="M147.141 22.4192C145.665 22.4192 144.522 21.974 143.711 21.0685C142.901 20.1792 142.482 18.8146 142.482 16.9753V1.84813H145.795V16.7096C145.795 17.6432 145.939 18.3253 146.244 18.7705C146.547 19.2302 147.098 19.4521 147.879 19.4521C148.356 19.4521 148.877 19.3575 149.311 19.2091V22.107C148.775 22.3153 148.052 22.4192 147.141 22.4192Z" fill="black"/>
<path d="M199.348 17.6726C199.999 17.6726 200.564 17.9107 201.012 18.3844C201.461 18.845 201.692 19.4232 201.692 20.0757C201.692 20.7274 201.461 21.2922 201.012 21.7658C200.564 22.2414 199.999 22.4783 199.348 22.4783C198.698 22.4783 198.147 22.2414 197.698 21.7658C197.236 21.2922 197.005 20.7274 197.005 20.0757C197.005 19.4232 197.236 18.845 197.698 18.3844C198.147 17.9107 198.698 17.6726 199.348 17.6726Z" fill="black"/>
<path d="M221.401 7.82521C222.949 7.82521 224.136 8.31431 224.989 9.29322C225.843 10.2721 226.278 11.6512 226.278 13.4163V22.166H222.963V13.9796C222.963 12.8824 222.732 12.0519 222.269 11.4732C221.806 10.9099 221.111 10.6135 220.185 10.6135C219.201 10.6135 218.435 10.9691 217.914 11.6662C217.392 12.3629 217.132 13.3722 217.132 14.6771V22.166H213.833V14.1138C213.833 12.9708 213.587 12.0965 213.095 11.5028C212.618 10.9099 211.893 10.6135 210.939 10.6135C209.926 10.6135 209.159 10.9691 208.624 11.6809C208.088 12.3779 207.828 13.4163 207.828 14.7662V22.166H204.529V8.16661H207.741V10.6723C208.088 9.76762 208.638 9.0706 209.362 8.5815C210.1 8.07699 210.983 7.82521 212.01 7.82521C213.095 7.82521 214.035 8.09169 214.832 8.59644C215.627 9.11517 216.22 9.84254 216.611 10.7911C217.016 9.84254 217.624 9.11517 218.449 8.59644C219.274 8.09169 220.257 7.82521 221.401 7.82521Z" fill="black"/>
<path d="M65.2877 19.6456C64.1303 19.6456 63.1744 19.23 62.4372 18.3853C61.6991 17.5399 61.3226 16.4571 61.3226 15.1665C61.3226 13.8611 61.6991 12.7937 62.4372 11.9483C63.1744 11.1036 64.1299 10.6726 65.2877 10.6726C66.04 10.6726 66.7199 10.8656 67.3275 11.2515C67.9355 11.6373 68.3983 12.1709 68.7462 12.868C69.0782 13.5507 69.2528 14.3213 69.2528 15.1665C69.2528 16.0126 69.0782 16.7831 68.7462 17.4657C68.3983 18.1478 67.9355 18.6814 67.3275 19.0674C66.7199 19.4526 66.04 19.6456 65.2877 19.6456ZM72.3056 22.1668V8.16687H69.2236V10.2577C68.8618 9.5161 68.2682 8.9381 67.4727 8.50756C66.6768 8.07726 65.7652 7.85511 64.7666 7.85511C63.4936 7.85511 62.3498 8.18181 61.3226 8.81932C60.2956 9.45612 59.4849 10.3312 58.8773 11.4592C58.2837 12.5718 57.9949 13.8023 57.9949 15.1672C57.9949 16.5159 58.2837 17.762 58.8773 18.8744C59.4849 20.0017 60.2956 20.8768 61.3373 21.5138C62.3643 22.1521 63.5076 22.4785 64.7666 22.4785C65.6927 22.4785 66.5464 22.2855 67.3135 21.9294C68.0656 21.5589 68.6301 21.0693 69.0064 20.4761L69.1943 22.1668H72.3056Z" fill="black"/>
<path d="M157.285 19.6456C156.142 19.6456 155.187 19.23 154.45 18.3853C153.697 17.5394 153.32 16.4571 153.32 15.1665C153.32 13.8611 153.697 12.7937 154.45 11.9483C155.187 11.1036 156.142 10.6726 157.285 10.6726C158.052 10.6726 158.718 10.8656 159.326 11.2515C159.933 11.6368 160.411 12.1705 160.744 12.868C161.091 13.55 161.265 14.3213 161.265 15.1665C161.265 16.0119 161.091 16.7831 160.744 17.4657C160.411 18.1478 159.933 18.6814 159.326 19.0669C158.718 19.4526 158.052 19.6456 157.285 19.6456ZM164.317 22.1668V8.16687H161.236V10.257C160.859 9.51563 160.28 8.9381 159.485 8.50756C158.689 8.07726 157.777 7.85511 156.765 7.85511C155.505 7.85511 154.362 8.1811 153.32 8.81861C152.293 9.45612 151.483 10.3312 150.889 11.4592C150.297 12.5718 149.993 13.8023 149.993 15.1665C149.993 16.5159 150.297 17.762 150.889 18.8744C151.483 20.0013 152.308 20.8763 153.335 21.5138C154.377 22.1521 155.521 22.4785 156.765 22.4785C157.705 22.4785 158.559 22.2855 159.311 21.9294C160.078 21.5589 160.642 21.0693 161.004 20.4761L161.193 22.1668H164.317Z" fill="black"/>
<path d="M93.5327 13.1627L97.8895 8.16664H93.9463L89.3225 13.5064V1.84843H86.0818V22.1672H89.3225V17.9906L91.3695 15.643L91.3684 15.6449L94.966 22.1672H98.4968L93.5327 13.1627Z" fill="black"/>
<path d="M184.816 13.8981C184.946 12.7862 185.337 11.9107 185.974 11.2729C186.611 10.6354 187.421 10.3244 188.39 10.3244C189.461 10.3244 190.315 10.6503 190.966 11.3033C191.618 11.9699 191.95 12.8301 191.95 13.8981H184.816ZM195.249 14.8325C195.249 13.4529 194.96 12.2371 194.381 11.1698C193.802 10.0868 193.007 9.25583 191.979 8.63301C190.952 8.02514 189.779 7.71409 188.477 7.71409C187.146 7.71409 185.93 8.03936 184.875 8.67759C183.804 9.3151 182.979 10.2051 182.371 11.3478C181.763 12.4894 181.459 13.7651 181.459 15.1738C181.459 16.6419 181.763 17.9321 182.356 19.0594C182.95 20.2009 183.789 21.076 184.859 21.685C185.93 22.3079 187.175 22.6194 188.593 22.6194C189.649 22.6194 190.633 22.4406 191.516 22.0703C192.413 21.6993 193.15 21.126 193.716 20.4475C194.658 19.3185 194.824 18.1701 194.824 18.1701H191.709C191.501 18.6265 191.189 19.0148 190.763 19.3263C190.156 19.7569 189.433 19.9645 188.593 19.9645C187.508 19.9645 186.625 19.6232 185.96 18.9406C185.294 18.2585 184.903 17.3242 184.816 16.1528H195.148C195.22 15.7075 195.249 15.263 195.249 14.8325Z" fill="black"/>
<path d="M173.346 10.6503C174.359 10.6503 175.184 10.9621 175.821 11.57C176.323 12.0491 176.656 12.6911 176.834 13.4832H180.028C180.028 13.4832 180.079 12.1494 179.149 10.5911C178.592 9.65838 177.774 8.9744 176.776 8.47036C175.763 7.96586 174.634 7.71408 173.346 7.71408C171.972 7.71408 170.727 8.03935 169.628 8.67757C168.528 9.31508 167.659 10.2051 167.052 11.3324C166.43 12.4597 166.126 13.735 166.126 15.1734C166.126 16.5975 166.43 17.8732 167.052 19.0148C167.659 20.1421 168.528 21.0172 169.628 21.6547C170.727 22.3078 171.972 22.6189 173.346 22.6189C175.107 22.6189 176.563 22.1568 177.752 21.2109C179.661 19.6907 179.82 17.3242 179.82 17.3242H176.623C176.435 17.9667 176.111 18.4923 175.662 18.8967C175.054 19.4304 174.272 19.6822 173.346 19.6822C172.189 19.6822 171.249 19.2678 170.539 18.4515C169.815 17.6203 169.454 16.5233 169.454 15.1734C169.454 13.8092 169.815 12.7269 170.539 11.8964C171.249 11.0659 172.189 10.6503 173.346 10.6503Z" fill="black"/>
<path d="M231.456 13.8981C231.587 12.7862 231.977 11.9106 232.614 11.2729C233.25 10.6354 234.061 10.3243 235.03 10.3243C236.101 10.3243 236.954 10.6503 237.606 11.3028C238.257 11.9699 238.59 12.83 238.59 13.8981H231.456ZM241.889 14.8324C241.889 13.4529 241.599 12.2371 241.021 11.1698C240.442 10.0868 239.646 9.25581 238.618 8.633C237.592 8.02512 236.419 7.71407 235.117 7.71407C233.786 7.71407 232.57 8.03935 231.514 8.67757C230.443 9.31508 229.619 10.2051 229.011 11.3471C228.403 12.4894 228.099 13.7651 228.099 15.1738C228.099 16.6418 228.403 17.932 228.996 19.0594C229.59 20.2009 230.429 21.076 231.5 21.6843C232.57 22.3078 233.815 22.6189 235.233 22.6189C236.289 22.6189 237.273 22.4406 238.156 22.0703C239.053 21.6993 239.789 21.126 240.355 20.4475C241.298 19.3185 241.463 18.1694 241.463 18.1694H238.348C238.141 18.6264 237.829 19.0148 237.403 19.3263C236.796 19.7561 236.072 19.9645 235.233 19.9645C234.148 19.9645 233.266 19.6231 232.6 18.9406C231.934 18.2585 231.543 17.3242 231.456 16.1527H241.787C241.86 15.7075 241.889 15.263 241.889 14.8324Z" fill="black"/>
<path d="M102.193 13.8988C102.323 12.7862 102.713 11.9107 103.35 11.2732C103.987 10.6356 104.797 10.3246 105.767 10.3246C106.838 10.3246 107.691 10.6511 108.342 11.3035C108.994 11.9707 109.326 12.8303 109.326 13.8988H102.193ZM112.625 14.8332C112.625 13.4536 112.336 12.2371 111.758 11.1698C111.178 10.087 110.382 9.25584 109.355 8.63326C108.328 8.02515 107.156 7.7141 105.854 7.7141C104.522 7.7141 103.307 8.04008 102.251 8.67831C101.179 9.31582 100.355 10.2051 99.7475 11.3478C99.1392 12.4894 98.8352 13.7654 98.8352 15.1741C98.8352 16.6426 99.1392 17.9328 99.7328 19.0601C100.326 20.2016 101.165 21.0767 102.236 21.6851C103.307 22.3079 104.551 22.6196 105.969 22.6196C107.026 22.6196 108.009 22.4409 108.893 22.071C109.789 21.6993 110.525 21.1267 111.092 20.4484C112.034 19.3185 112.2 18.1701 112.2 18.1701H109.085C108.877 18.6272 108.565 19.0148 108.14 19.3266C107.532 19.7569 106.809 19.9648 105.969 19.9648C104.884 19.9648 104.001 19.6234 103.335 18.9406C102.67 18.2585 102.28 17.3242 102.193 16.1535L112.524 16.153C112.596 15.7078 112.625 15.263 112.625 14.8332Z" fill="black"/>
</svg>
