<svg width="150" height="42" viewBox="0 0 150 42" fill="none" xmlns="http://www.w3.org/2000/svg">
<path d="M35.268 41.9995H7.0574C3.16047 41.9995 0 38.8644 0 34.9963V7.00251C0 3.13623 3.16047 4.95911e-05 7.0574 4.95911e-05H35.268C39.166 4.95911e-05 42.3254 3.13623 42.3254 7.00251V34.9963C42.3254 38.8644 39.166 41.9995 35.268 41.9995Z" fill="black"/>
<path d="M12.1443 5.26043L13.0714 36.7532H9.9851L9.59806 25.968L7.5385 23.5182L7.05542 13.4762L12.1443 5.26043Z" fill="#7DBC3C"/>
<path d="M19.6534 36.7502H22.2996L22.8651 28.5124L22.2827 16.7884C23.3019 16.32 23.8832 15.7294 24.2384 14.99C24.8272 13.7646 24.7863 12.0864 24.701 10.7212C24.6236 9.47832 24.2545 6.3624 24.2545 6.3624L22.8475 11.7916L21.9305 6.3624L20.4292 10.6423L19.557 5.83359L18.2987 12.1145L16.7735 6.55443C16.7735 6.55443 15.8779 9.78237 15.8779 11.6117C15.8779 16.2599 19.0599 17.3022 19.0599 17.3022L18.5793 23.996L19.6534 36.7502Z" fill="#FF7850"/>
<path d="M33.3823 36.7502H30.3498L29.5524 26.2368L30.2817 18.0675C30.2817 18.0675 28.8765 17.666 27.9121 15.5946C26.4557 12.4659 28.6672 8.05264 29.0234 7.37448C29.3327 6.78736 29.5441 6.29839 31.6782 6.17321C33.7582 6.05159 34.6574 6.14156 34.6843 6.65471C34.7918 8.74183 36.1521 10.1654 36.1521 13.5288C36.1521 16.5298 34.5097 17.6596 33.4991 18.1067L33.3823 36.7502Z" fill="#F39941"/>
<path d="M67.0659 5.76557C68.3521 5.76557 69.3587 6.16635 70.0748 6.96684C70.7901 7.76734 71.1545 8.89606 71.1545 10.3406V17.4995H68.3754V10.8015C68.3754 9.90353 68.1818 9.22466 67.793 8.75062C67.3941 8.28938 66.8118 8.0465 66.0459 8.0465C65.2206 8.0465 64.5784 8.33775 64.1408 8.90816C63.7043 9.47857 63.4865 10.3043 63.4865 11.3719V17.4995H60.7198V10.911C60.7198 9.97572 60.5131 9.26057 60.102 8.7748C59.6888 8.28938 59.0943 8.0465 58.2929 8.0465C57.4443 8.0465 56.801 8.33775 56.3524 8.92025C55.9037 9.49172 55.6851 10.3406 55.6851 11.4444V17.4995H52.907V6.04473H55.612V8.09557C55.9037 7.35446 56.3645 6.78512 56.9702 6.38434C57.5891 5.97147 58.3295 5.76557 59.1914 5.76557C60.102 5.76557 60.8897 5.98356 61.5573 6.39643C62.2246 6.82104 62.722 7.41563 63.0492 8.1923C63.3886 7.41563 63.8989 6.82104 64.5906 6.39643C65.2823 5.98356 66.1076 5.76557 67.0659 5.76557Z" fill="black"/>
<path d="M87.3059 6.04439H90.0353L90.012 9.41813H90.0596C90.2786 8.28905 90.7767 7.41636 91.5515 6.79759C92.4152 6.10662 93.4444 5.86267 94.5851 5.86267V8.76308C94.512 8.75028 94.4034 8.75028 94.258 8.75028C92.8144 8.75028 91.7583 9.12688 91.0907 9.87901C90.4112 10.6311 90.084 11.7602 90.084 13.2528V17.5002H87.3059V6.04439Z" fill="black"/>
<path d="M125.386 17.7544C124.185 17.7544 123.226 17.3789 122.534 16.6143C121.831 15.8611 121.479 14.7693 121.479 13.3373V8.37463H119.211V6.04463H121.479V3.15702H124.209V6.04463H127.545V8.37463H124.209V13.1314C124.209 14.5745 124.79 15.3028 125.955 15.3028C126.454 15.3028 127.084 15.1563 127.412 15.0225V17.4262C126.951 17.6449 126.271 17.7544 125.386 17.7544Z" fill="black"/>
<path d="M78.788 15.4362C77.8175 15.4362 77.0166 15.0966 76.3977 14.4057C75.7791 13.7136 75.4641 12.8271 75.4641 11.7723C75.4641 10.7037 75.7791 9.83064 76.3977 9.13897C77.0166 8.44765 77.8175 8.09523 78.788 8.09523C79.4191 8.09523 79.9893 8.25313 80.4985 8.56927C81.0081 8.8847 81.3959 9.32069 81.6876 9.8911C81.9664 10.4494 82.1119 11.0803 82.1119 11.7723C82.1119 12.4643 81.9664 13.0949 81.6876 13.6525C81.3959 14.2108 81.0081 14.6468 80.4985 14.9633C79.9893 15.2787 79.4191 15.4362 78.788 15.4362ZM84.6714 17.4992V6.04545H82.0879V7.75597C81.784 7.14929 81.2866 6.67596 80.6193 6.32461C79.9527 5.9722 79.1879 5.79012 78.3504 5.79012C77.2839 5.79012 76.3249 6.05754 75.4641 6.57852C74.6022 7.10093 73.9235 7.81607 73.4139 8.73819C72.9168 9.64892 72.6738 10.6564 72.6738 11.7723C72.6738 12.8761 72.9168 13.8953 73.4139 14.8047C73.9235 15.7275 74.6022 16.4437 75.4759 16.965C76.3371 17.4871 77.295 17.7542 78.3504 17.7542C79.1274 17.7542 79.8434 17.5955 80.4856 17.3054C81.1174 17.001 81.5905 16.6012 81.9055 16.1151L82.0635 17.4992H84.6714Z" fill="black"/>
<path d="M102.471 10.1325L106.123 6.04473H102.818L98.941 10.4135V0.875118H96.2224V17.4995H98.941V14.0824L100.657 12.1621L100.656 12.1631L103.672 17.4995H106.632L102.471 10.1325Z" fill="black"/>
<path d="M109.732 10.734C109.84 9.82508 110.168 9.1078 110.702 8.58682C111.236 8.06442 111.915 7.81015 112.728 7.81015C113.626 7.81015 114.342 8.07758 114.888 8.61065C115.434 9.15723 115.712 9.861 115.712 10.734H109.732ZM118.478 11.4983C118.478 10.3706 118.236 9.37522 117.75 8.50218C117.266 7.61634 116.598 6.93569 115.736 6.42645C114.876 5.92929 113.892 5.67503 112.8 5.67503C111.684 5.67503 110.666 5.94103 109.78 6.46343C108.882 6.98477 108.191 7.71271 107.682 8.64799C107.171 9.58184 106.916 10.6256 106.916 11.7774C106.916 12.9798 107.171 14.0352 107.668 14.9573C108.166 15.8923 108.87 16.6074 109.767 17.1046C110.666 17.6149 111.709 17.8691 112.898 17.8691C113.784 17.8691 114.608 17.7244 115.349 17.4211C116.1 17.1177 116.718 16.6483 117.192 16.0928C117.983 15.1689 118.122 14.2301 118.122 14.2301H115.51C115.335 14.6032 115.075 14.9211 114.718 15.1753C114.208 15.5278 113.602 15.6977 112.898 15.6977C111.988 15.6977 111.248 15.4182 110.69 14.8599C110.132 14.3023 109.804 13.5374 109.732 12.579H118.394C118.454 12.2155 118.478 11.851 118.478 11.4983Z" fill="black"/>
<path d="M58.7899 35.558C59.7603 35.558 60.5613 35.2184 61.1802 34.5274C61.8102 33.8354 62.1138 32.9488 62.1138 31.8941C62.1138 30.8254 61.8102 29.9524 61.1802 29.2607C60.5613 28.5694 59.7603 28.217 58.7899 28.217C58.1588 28.217 57.5897 28.3749 57.0916 28.691C56.5819 29.0065 56.182 29.4424 55.9025 30.0129C55.6115 30.5712 55.466 31.202 55.466 31.8941C55.466 32.5861 55.6115 33.2166 55.9025 33.7742C56.182 34.3325 56.5819 34.7685 57.0916 35.085C57.5897 35.4005 58.1588 35.558 58.7899 35.558ZM52.9065 42V26.1672H55.49V27.8777C55.8061 27.271 56.2913 26.7977 56.9579 26.4464C57.6252 26.094 58.3889 25.9119 59.2386 25.9119C60.294 25.9119 61.253 26.1793 62.1138 26.7003C62.9756 27.2227 63.6666 27.9378 64.164 28.8599C64.6611 29.7707 64.9162 30.7781 64.9162 31.8941C64.9162 32.9979 64.6611 34.0171 64.164 34.9264C63.6666 35.8492 62.9756 36.5655 62.1019 37.0868C61.2401 37.6088 60.2818 37.8759 59.2386 37.8759C58.4505 37.8759 57.7345 37.7173 57.1034 37.4271C56.4612 37.1227 55.9874 36.723 55.6846 36.2369V42H52.9065Z" fill="black"/>
<path d="M70.5675 37.8274C69.3308 37.8274 68.3718 37.4629 67.693 36.7236C67.0125 35.9945 66.6609 34.8786 66.6609 33.374V20.9982H69.4393V33.156C69.4393 33.9202 69.5608 34.4789 69.8149 34.8423C70.0701 35.2182 70.5309 35.4007 71.1864 35.4007C71.5863 35.4007 72.0239 35.3228 72.3873 35.2015V37.5724C71.9386 37.742 71.3312 37.8274 70.5675 37.8274Z" fill="black"/>
<path d="M114.337 33.9438C114.883 33.9438 115.356 34.1386 115.732 34.5273C116.108 34.9029 116.302 35.3758 116.302 35.9093C116.302 36.4438 116.108 36.9046 115.732 37.2923C115.356 37.6809 114.883 37.8748 114.337 37.8748C113.791 37.8748 113.33 37.6809 112.954 37.2923C112.565 36.9046 112.371 36.4438 112.371 35.9093C112.371 35.3758 112.565 34.9029 112.954 34.5273C113.33 34.1386 113.791 33.9438 114.337 33.9438Z" fill="black"/>
<path d="M132.824 25.8882C134.122 25.8882 135.117 26.2879 135.833 27.0895C136.548 27.89 136.913 29.018 136.913 30.4621V37.6204H134.134V30.923C134.134 30.0251 133.94 29.3462 133.552 28.8732C133.163 28.412 132.582 28.1691 131.805 28.1691C130.98 28.1691 130.338 28.4593 129.901 29.0308C129.464 29.6005 129.246 30.4259 129.246 31.4938V37.6204H126.48V31.0326C126.48 30.0976 126.273 29.3825 125.861 28.8964C125.461 28.412 124.854 28.1691 124.053 28.1691C123.204 28.1691 122.561 28.4593 122.112 29.0422C121.664 29.6133 121.445 30.4621 121.445 31.566V37.6204H118.679V26.1674H121.372V28.2175C121.664 27.4771 122.125 26.9077 122.731 26.507C123.35 26.0941 124.09 25.8882 124.951 25.8882C125.861 25.8882 126.65 26.1062 127.316 26.5191C127.984 26.9437 128.481 27.5375 128.809 28.3139C129.149 27.5375 129.658 26.9437 130.35 26.5191C131.042 26.1062 131.866 25.8882 132.824 25.8882Z" fill="black"/>
<path d="M79.0729 35.5578C78.1146 35.5578 77.3137 35.2182 76.6948 34.5272C76.064 33.8352 75.749 32.9487 75.749 31.8939C75.749 30.8253 76.064 29.9522 76.6948 29.2605C77.3137 28.5692 78.1146 28.2168 79.0729 28.2168C79.7151 28.2168 80.2731 28.3747 80.7834 28.6909C81.293 29.0063 81.693 29.4423 81.9725 30.0127C82.2631 30.571 82.4083 31.2019 82.4083 31.8939C82.4083 32.5859 82.2631 33.2164 81.9725 33.774C81.693 34.3324 81.293 34.7683 80.7834 35.0848C80.2731 35.4003 79.7151 35.5578 79.0729 35.5578ZM84.9685 37.6208V26.167H82.385V27.8776C82.0689 27.2709 81.5847 26.7975 80.9171 26.4462C80.2498 26.0938 79.485 25.9117 78.6353 25.9117C77.5799 25.9117 76.622 26.1791 75.749 26.7001C74.8871 27.2225 74.2084 27.9377 73.711 28.8598C73.2128 29.7705 72.9587 30.7769 72.9587 31.8939C72.9587 32.9977 73.2128 34.0169 73.711 34.9262C74.2084 35.8491 74.9 36.5653 75.7608 37.0866C76.6349 37.6087 77.5932 37.8757 78.6353 37.8757C79.4245 37.8757 80.1405 37.7171 80.7705 37.4269C81.4145 37.1225 81.8875 36.7228 82.1904 36.2367L82.3484 37.6208H84.9685Z" fill="black"/>
<path d="M102.154 30.8564C102.262 29.9464 102.59 29.2302 103.124 28.7092C103.658 28.1868 104.337 27.9326 105.149 27.9326C106.047 27.9326 106.763 28.1989 107.31 28.7331C107.855 29.2786 108.133 29.9827 108.133 30.8564H102.154ZM110.899 31.62C110.899 30.4919 110.657 29.4966 110.172 28.6239C109.687 27.738 109.02 27.0581 108.158 26.5489C107.296 26.0506 106.314 25.7964 105.222 25.7964C104.106 25.7964 103.087 26.0634 102.202 26.5858C101.304 27.1061 100.613 27.8344 100.104 28.7693C99.594 29.7035 99.3389 30.7469 99.3389 31.8991C99.3389 33.1004 99.594 34.1569 100.091 35.0787C100.588 36.0129 101.292 36.728 102.19 37.2263C103.087 37.7355 104.131 37.9905 105.32 37.9905C106.205 37.9905 107.03 37.845 107.771 37.5417C108.521 37.2383 109.14 36.7689 109.613 36.2142C110.404 35.2896 110.543 34.3507 110.543 34.3507H107.932C107.757 34.7245 107.496 35.0428 107.139 35.2967C106.629 35.6484 106.024 35.8191 105.32 35.8191C104.409 35.8191 103.67 35.5399 103.111 34.9816C102.553 34.4229 102.226 33.6587 102.154 32.7003H110.815C110.875 32.3369 110.899 31.9724 110.899 31.62Z" fill="black"/>
<path d="M92.5375 28.1988C93.3861 28.1988 94.0771 28.4538 94.6117 28.952C95.0325 29.3436 95.312 29.8684 95.4614 30.5167H98.1385C98.1385 30.5167 98.1815 29.425 97.402 28.1505C96.9347 27.3873 96.2495 26.8279 95.412 26.415C94.563 26.0032 93.6162 25.7963 92.5375 25.7963C91.385 25.7963 90.3407 26.0633 89.42 26.5857C88.4983 27.1071 87.7694 27.8343 87.2598 28.7571C86.739 29.6793 86.4839 30.7226 86.4839 31.899C86.4839 33.0651 86.739 34.1074 87.2598 35.0427C87.7694 35.9644 88.4983 36.6806 89.42 37.202C90.3407 37.7354 91.385 37.9915 92.5375 37.9915C94.0125 37.9915 95.2342 37.6131 96.2309 36.8385C97.831 35.5953 97.9639 33.6586 97.9639 33.6586H95.2837C95.1267 34.1846 94.8547 34.6142 94.4781 34.9452C93.9685 35.3819 93.3134 35.5878 92.5375 35.5878C91.567 35.5878 90.7782 35.2486 90.1837 34.5814C89.577 33.9008 89.2742 33.0036 89.2742 31.899C89.2742 30.7831 89.577 29.8983 90.1837 29.2184C90.7782 28.5384 91.567 28.1988 92.5375 28.1988Z" fill="black"/>
<path d="M141.254 30.8567C141.363 29.9466 141.691 29.2304 142.225 28.7094C142.758 28.187 143.438 27.9328 144.25 27.9328C145.148 27.9328 145.865 28.1991 146.411 28.7333C146.956 29.2788 147.234 29.9829 147.234 30.8567H141.254ZM150 31.6202C150 30.4922 149.758 29.4968 149.273 28.6241C148.788 27.7383 148.12 27.0583 147.259 26.5491C146.397 26.0508 145.415 25.7966 144.323 25.7966C143.207 25.7966 142.188 26.0637 141.303 26.585C140.406 27.1063 139.714 27.8346 139.204 28.7695C138.695 29.7038 138.44 30.7471 138.44 31.8993C138.44 33.1006 138.695 34.1571 139.192 35.0789C139.69 36.0131 140.392 36.7283 141.291 37.2265C142.188 37.7357 143.231 37.99 144.421 37.99C145.306 37.99 146.131 37.8453 146.871 37.5419C147.622 37.2386 148.241 36.7692 148.715 36.2144C149.505 35.2898 149.644 34.351 149.644 34.351H147.033C146.858 34.7247 146.597 35.043 146.24 35.2969C145.73 35.6486 145.124 35.8193 144.421 35.8193C143.511 35.8193 142.771 35.5401 142.213 34.9818C141.654 34.4231 141.326 33.6589 141.254 32.7005H149.916C149.977 32.336 150 31.9726 150 31.6202Z" fill="black"/>
</svg>
