<svg width="177" height="64" viewBox="0 0 177 64" fill="none" xmlns="http://www.w3.org/2000/svg">
<path d="M41.4 20.1143L37.8 31.0857L30.6 34.4L34.2 21.9429L27 5.48571L14.4 0L16.2 14.6286L0 38.4L16.2 64H30.6L54 42.0571L41.4 20.1143Z" fill="#EE805B"/>
<path d="M149 31.872L131.382 15.0092C131.382 15.0092 120.412 11.0367 119.544 10.3455C118.675 9.65455 103.193 7.24949 103.193 7.24949C96.723 8.47719 79.8602 11.6415 73.7312 13.4674L62.2147 10.1182L59.0729 2.58624L54.8399 0C49.7198 3.02678 49.7351 3.8903 48.752 9.43237L52.3469 12.2702C51.5937 14.0894 48 22.2855 48 22.2855L54.4486 24.9432C54.4486 24.9432 60.0649 20.1559 61.8412 18.3924L69.6785 21.4175L81.9588 31.1658L95.3098 52.8682L115.481 64L132.028 60.9587C145.5 47.5127 144.704 51.1478 149 31.872Z" fill="#DB5952"/>
</svg>
