<svg width="177" height="64" viewBox="0 0 177 64" fill="none" xmlns="http://www.w3.org/2000/svg">
<path d="M58.5348 32.9159L55.4908 49.5813L43.7142 61.4212L30.3908 64L14.4356 61.1561L7.20357 54.9904L0 39.8053L1.4749 26.6103L10.2772 13.0406L21.0421 7.873L32.3826 5.91554L48.8544 13.3796L61.8375 0L67.1997 0.067851L72 4.52764L70.6783 10.3085L54.2887 19.6385L58.5348 32.9159ZM62.0056 9.56076L65.4033 9.53468L66.2937 7.36596L66.8068 4.78192L64.7453 4.06632L61.3694 6.69576L62.0056 9.56076Z" fill="#6B667F"/>
<path d="M111.4 20.1143L107.8 31.0857L100.6 34.4L104.2 21.9429L97 5.48571L84.4 0L86.2 14.6286L70 38.4L86.2 64H100.6L124 42.0571L111.4 20.1143Z" fill="#EE805B"/>
</svg>
