<svg width="177" height="64" viewBox="0 0 177 64" fill="none" xmlns="http://www.w3.org/2000/svg">
<path d="M73.3962 41.8961L72 46.1886L84.538 50.9977L84.5699 62.8862L87.9011 64L95.4376 47.255L113.626 44.2118L131.342 33.9076L139.677 21.0791L147 4.45527L144.459 0.733391L133.675 0L121.376 0.200535L113.987 2.09892L96.0936 19.2571L88.9876 39.9579L73.3962 41.8961Z" fill="#7FD6F0"/>
<path d="M20.2239 62.7959L47.9197 64L59.0097 55.2365L63.9655 49.5506V38.9348L72 31.979L69.7597 9.63575L53.5361 0L27.3 0.315957L0 18.8578L1.39431 30.1029L13.5646 35.1267L13.2353 50.6112L20.2239 62.7959Z" fill="#F2AB61"/>
</svg>
