<svg width="177" height="64" viewBox="0 0 177 64" fill="none" xmlns="http://www.w3.org/2000/svg">
<path d="M22.1341 14.101L17.4323 11.9268L6.3845 13.748L0 24.5188L0.460162 38.6466L16.9923 64L45.4787 54.3299L54.4574 43.4928L56 31.034L48.4125 22.7214L43.6574 21.571L46.7444 4.53564L36.6047 11.2362L36.105 0L30.3339 7.39064L22.9595 1.22686L22.1341 14.101Z" fill="#88478C"/>
<path d="M86.2861 1.55449L82.0754 3.03844L68.4338 14.7912L65 24.8715L66.7012 43.7135L75.5653 55.7412L91.6543 64L104.868 62.9796L116.816 58.5043L128.337 41.9628L130 32.8006L126.559 17.476L115.954 5.26006L100.976 0L86.2861 1.55449Z" fill="#F5D13D"/>
</svg>
