<svg width="177" height="64" viewBox="0 0 177 64" fill="none" xmlns="http://www.w3.org/2000/svg">
<path d="M22.9451 64L28.0137 60.3957L36.0693 40.4978L40.5401 36.6339L58.756 33.544L67 26.8075C59.3734 18.1118 50.9826 8.6293 43.2791 0L35.4244 7.17654L29.7917 24.487L25.3209 28.3509L4.29297 33.5882L0 38.0691L22.9451 64Z" fill="#FF784F"/>
<path d="M150 32.128L132.382 48.9908C132.382 48.9908 121.412 52.9633 120.544 53.6545C119.675 54.3454 104.193 56.7505 104.193 56.7505C97.723 55.5228 80.8602 52.3585 74.7312 50.5326L63.2147 53.8818L60.0729 61.4138L55.8399 64C50.7198 60.9732 50.7351 60.1097 49.752 54.5676L53.3469 51.7298C52.5937 49.9106 49 41.7145 49 41.7145L55.4486 39.0568C55.4486 39.0568 61.0649 43.8441 62.8412 45.6076L70.6785 42.5825L82.9588 32.8342L96.3098 11.1318L116.481 0L133.028 3.04135C146.5 16.4873 145.704 12.8522 150 32.128Z" fill="#DB5952"/>
</svg>
