<svg width="177" height="64" viewBox="0 0 177 64" fill="none" xmlns="http://www.w3.org/2000/svg">
<path d="M57.1699 43.5408L57.1997 57.8012L33.3461 64L23.283 45.81L13.4295 45.9624L3.41572 40.8959L0 29.0107L4.52355 19.1514L13.7547 15.276L22.0882 16.3437L22.7676 8.80278L30.1735 2.07762L39.7238 0L48.121 2.72637L55.4274 8.6321L55.1517 16.2696L62.7516 12.3319L71.7548 14.5857L76.6818 20.9937L77 29.2871L67.6722 40.5529L57.1699 43.5408Z" fill="#5C913B"/>
<path d="M88.8709 51.9226L84.9021 38.4746L84 23.1949L96.0202 5.72238L108.082 0L123.243 5.19129L126.465 10.2555L130.108 5.50157L134.061 8.31759L130.193 13.3552L137.081 15.0474L144 23.7211L143.256 45.6752L132.959 57.9668L108.57 64L88.8709 51.9226Z" fill="#DB5952"/>
</svg>
